<svg width="32" height="32" viewBox="0 0 32 32" fill="none" xmlns="http://www.w3.org/2000/svg">
<rect width="32" height="32" fill="#2055CA"/>
<path d="M5.82904 7.638C5.464 7.836 5.3043 8.166 5.3043 8.936V21.41C5.3043 22.18 5.464 22.51 5.82904 22.708C5.82904 22.752 5.82904 22.862 5.82904 22.862H3C3 22.862 3 22.752 3 22.708C3.34222 22.51 3.50193 22.18 3.50193 21.41V8.936C3.50193 8.166 3.34222 7.836 3 7.638C3 7.594 3 7.462 3 7.462H5.82904C5.82904 7.462 5.82904 7.594 5.82904 7.638ZM18.2883 21.41C18.3795 22.202 18.5848 22.51 18.9271 22.708C18.9271 22.752 18.9271 22.862 18.9271 22.862H16.098C16.098 22.862 16.098 22.752 16.098 22.708C16.4631 22.51 16.5543 22.136 16.4859 21.41C16.4174 20.684 16.0752 16.966 15.9611 15.822C15.8014 14.172 14.9573 12.302 12.9952 12.676C10.4399 13.16 9.96083 17.758 9.96083 19.606V21.41C9.96083 22.18 10.1205 22.51 10.4856 22.708C10.4856 22.752 10.4856 22.862 10.4856 22.862H7.65653C7.65653 22.862 7.65653 22.752 7.65653 22.708C7.99875 22.51 8.15846 22.18 8.15846 21.41V13.974C8.15846 13.204 8.09001 12.984 7.65653 12.918C7.65653 12.874 7.65653 12.764 7.65653 12.764L9.80112 12.28H9.96083V17.736C10.2574 15.272 11.0331 12.28 13.999 12.28C15.8699 12.28 17.4669 13.512 17.7407 16.152C17.9688 18.286 18.197 20.596 18.2883 21.41ZM27.6813 18.836C29.2555 21.3 29.8715 22.246 30.8982 22.708V22.862H27.4303V22.708C27.9551 22.312 27.7041 21.762 27.0196 20.64L24.4416 16.592L22.5937 18.154V21.3C22.5937 22.07 22.7534 22.51 23.1184 22.708C23.1184 22.752 23.1184 22.862 23.1184 22.862H20.2894C20.2894 22.862 20.2894 22.752 20.2894 22.708C20.6316 22.51 20.7913 22.07 20.7913 21.3V8.562C20.7913 7.792 20.7228 7.704 20.2894 7.638C20.2894 7.594 20.2894 7.462 20.2894 7.462L22.434 7H22.5937V17.956L25.0119 15.91C27.3619 13.886 27.9094 13.028 26.9968 12.456V12.28H30.0084V12.456C28.7536 12.94 27.6585 13.842 25.5823 15.602L27.6813 18.836Z" fill="white"/>
</svg>
