<svg width="121" height="116" viewBox="0 0 121 116" fill="none" xmlns="http://www.w3.org/2000/svg">
<g clip-path="url(#clip0_131_6)">
<path fill-rule="evenodd" clip-rule="evenodd" d="M111.86 0H78.57C73.61 0 71.89 2.93 69.6 7.21L65.92 13.32H7.21C3.23 13.32 0 16.55 0 20.53V94.65C0 98.63 3.23 101.86 7.21 101.86H113.63C117.61 101.86 120.84 98.63 120.84 94.65V7.21C120.84 3.23 116.82 0 111.87 0H111.86Z" fill="#A4B5D4"/>
<path d="M113.62 26.54H7.21C3.22803 26.54 0 29.7681 0 33.75V107.87C0 111.852 3.22803 115.08 7.21 115.08H113.62C117.602 115.08 120.83 111.852 120.83 107.87V33.75C120.83 29.7681 117.602 26.54 113.62 26.54Z" fill="#CDD7E6"/>
</g>
<defs>
<clipPath id="clip0_131_6">
<rect width="120.83" height="115.08" fill="white"/>
</clipPath>
</defs>
</svg>
