<svg width="133" height="133" viewBox="0 0 133 133" fill="none" xmlns="http://www.w3.org/2000/svg">
<circle cx="66.5" cy="66.5" r="66" stroke="#A2A2A2"/>
<path d="M30.46 66.26C29.3533 66.26 28.3933 66.14 27.58 65.9C26.78 65.66 26.1133 65.3333 25.58 64.92C25.0467 64.4933 24.6467 64.02 24.38 63.5C24.1133 62.9667 23.96 62.4067 23.92 61.82H25.58C25.66 62.2733 25.8067 62.6867 26.02 63.06C26.2467 63.4333 26.5533 63.76 26.94 64.04C27.34 64.32 27.8267 64.54 28.4 64.7C28.9867 64.8467 29.6733 64.92 30.46 64.92C31.38 64.92 32.1733 64.82 32.84 64.62C33.52 64.42 34.04 64.1133 34.4 63.7C34.7733 63.2733 34.96 62.74 34.96 62.1C34.96 61.7133 34.8667 61.36 34.68 61.04C34.5067 60.72 34.22 60.4467 33.82 60.22C33.42 59.9933 32.8933 59.8333 32.24 59.74L28.74 59.1C28.2067 58.9933 27.6867 58.8667 27.18 58.72C26.6733 58.56 26.2133 58.3467 25.8 58.08C25.3867 57.8 25.0533 57.44 24.8 57C24.5467 56.5467 24.42 55.9867 24.42 55.32C24.42 54.7333 24.56 54.2 24.84 53.72C25.12 53.24 25.52 52.8333 26.04 52.5C26.56 52.1667 27.1733 51.9133 27.88 51.74C28.6 51.5533 29.4 51.46 30.28 51.46C31.2933 51.46 32.16 51.5667 32.88 51.78C33.6 51.98 34.1867 52.2733 34.64 52.66C35.0933 53.0333 35.44 53.46 35.68 53.94C35.92 54.42 36.0533 54.92 36.08 55.44H34.42C34.34 54.92 34.14 54.46 33.82 54.06C33.5 53.66 33.0467 53.3467 32.46 53.12C31.8733 52.8933 31.1267 52.78 30.22 52.78C29.3933 52.78 28.6667 52.8867 28.04 53.1C27.4267 53.3 26.9467 53.58 26.6 53.94C26.2667 54.3 26.1 54.74 26.1 55.26C26.1 55.7133 26.22 56.1 26.46 56.42C26.7 56.7267 27.04 56.9733 27.48 57.16C27.9333 57.3467 28.48 57.5067 29.12 57.64L32.64 58.26C33.4267 58.4067 34.12 58.6267 34.72 58.92C35.32 59.2133 35.7867 59.6133 36.12 60.12C36.4667 60.6267 36.64 61.2533 36.64 62C36.64 62.7067 36.4933 63.3267 36.2 63.86C35.9067 64.38 35.4867 64.82 34.94 65.18C34.4067 65.54 33.76 65.8133 33 66C32.24 66.1733 31.3933 66.26 30.46 66.26ZM45.7908 66.26C44.3508 66.26 43.0774 65.9533 41.9708 65.34C40.8774 64.7267 40.0308 63.8667 39.4308 62.76C38.8308 61.64 38.5308 60.34 38.5308 58.86C38.5308 58.1267 38.6041 57.4333 38.7508 56.78C38.9108 56.1267 39.1374 55.5267 39.4308 54.98C39.7241 54.42 40.0841 53.9267 40.5108 53.5C40.9508 53.06 41.4374 52.6933 41.9708 52.4C42.5174 52.0933 43.1108 51.86 43.7508 51.7C44.3908 51.54 45.0708 51.46 45.7908 51.46C46.9641 51.46 48.0174 51.6533 48.9508 52.04C49.8974 52.4133 50.6708 52.94 51.2708 53.62C51.8708 54.3 52.2441 55.0867 52.3908 55.98H50.6908C50.5174 55.3533 50.1908 54.8 49.7108 54.32C49.2441 53.84 48.6774 53.4733 48.0108 53.22C47.3574 52.9533 46.6174 52.82 45.7908 52.82C45.2308 52.82 44.6974 52.8867 44.1908 53.02C43.6974 53.14 43.2441 53.3267 42.8308 53.58C42.4308 53.82 42.0641 54.1133 41.7308 54.46C41.4108 54.8067 41.1374 55.2067 40.9108 55.66C40.6841 56.1 40.5108 56.5933 40.3908 57.14C40.2708 57.6733 40.2108 58.2467 40.2108 58.86C40.2108 60.0733 40.4441 61.1333 40.9108 62.04C41.3774 62.9467 42.0308 63.6533 42.8708 64.16C43.7108 64.6533 44.6841 64.9 45.7908 64.9C46.6308 64.9 47.3841 64.7733 48.0508 64.52C48.7308 64.2533 49.3041 63.88 49.7708 63.4C50.2374 62.9067 50.5641 62.3333 50.7508 61.68H52.4708C52.2841 62.6133 51.8841 63.4267 51.2708 64.12C50.6574 64.8133 49.8841 65.3467 48.9508 65.72C48.0308 66.08 46.9774 66.26 45.7908 66.26ZM55.0897 66V51.72H62.5897C63.403 51.72 64.1297 51.8733 64.7697 52.18C65.4097 52.4733 65.9097 52.9133 66.2697 53.5C66.6297 54.0733 66.8097 54.7867 66.8097 55.64C66.8097 56.28 66.6897 56.8533 66.4497 57.36C66.223 57.8667 65.903 58.28 65.4897 58.6C65.0764 58.92 64.603 59.1333 64.0697 59.24L63.9497 59.06C64.4697 59.1533 64.883 59.2867 65.1897 59.46C65.4964 59.6333 65.7364 59.8733 65.9097 60.18C66.083 60.4867 66.243 60.8733 66.3897 61.34L67.7297 66H66.0297L64.7497 61.52C64.5897 60.96 64.3497 60.5533 64.0297 60.3C63.723 60.0467 63.303 59.92 62.7697 59.92H56.7097V66H55.0897ZM56.7097 58.58H62.2897C62.863 58.58 63.3564 58.4667 63.7697 58.24C64.1964 58.0133 64.523 57.6933 64.7497 57.28C64.9897 56.8667 65.1097 56.3733 65.1097 55.8C65.1097 54.9333 64.8564 54.26 64.3497 53.78C63.843 53.3 63.1497 53.06 62.2697 53.06H56.7097V58.58ZM76.8116 66.26C75.3182 66.26 74.0049 65.96 72.8716 65.36C71.7516 64.76 70.8782 63.9067 70.2516 62.8C69.6382 61.6933 69.3316 60.38 69.3316 58.86C69.3316 58.0867 69.4116 57.3733 69.5716 56.72C69.7449 56.0667 69.9782 55.4667 70.2716 54.92C70.5782 54.36 70.9516 53.8667 71.3916 53.44C71.8316 53.0133 72.3249 52.6533 72.8716 52.36C73.4316 52.0667 74.0382 51.8467 74.6916 51.7C75.3449 51.54 76.0516 51.46 76.8116 51.46C78.2916 51.46 79.5982 51.76 80.7316 52.36C81.8649 52.9467 82.7382 53.8 83.3516 54.92C83.9782 56.0267 84.2916 57.34 84.2916 58.86C84.2916 59.62 84.2049 60.3333 84.0316 61C83.8716 61.6533 83.6382 62.26 83.3316 62.82C83.0382 63.3667 82.6716 63.8533 82.2316 64.28C81.7916 64.7067 81.2916 65.0667 80.7316 65.36C80.1849 65.6533 79.5782 65.8733 78.9116 66.02C78.2582 66.18 77.5582 66.26 76.8116 66.26ZM76.7916 64.9C77.4049 64.9 77.9716 64.8333 78.4916 64.7C79.0116 64.5667 79.4916 64.38 79.9316 64.14C80.3716 63.8867 80.7516 63.5867 81.0716 63.24C81.4049 62.8933 81.6849 62.5 81.9116 62.06C82.1382 61.6067 82.3049 61.1133 82.4116 60.58C82.5316 60.0467 82.5916 59.4733 82.5916 58.86C82.5916 57.6467 82.3649 56.5867 81.9116 55.68C81.4582 54.76 80.7982 54.0533 79.9316 53.56C79.0782 53.0667 78.0382 52.82 76.8116 52.82C76.1982 52.82 75.6316 52.8867 75.1116 53.02C74.5916 53.14 74.1116 53.3267 73.6716 53.58C73.2449 53.82 72.8649 54.1133 72.5316 54.46C72.2116 54.8067 71.9316 55.2067 71.6916 55.66C71.4649 56.1133 71.2982 56.6067 71.1916 57.14C71.0849 57.6733 71.0316 58.2467 71.0316 58.86C71.0316 60.0733 71.2582 61.1333 71.7116 62.04C72.1649 62.9467 72.8249 63.6533 73.6916 64.16C74.5582 64.6533 75.5916 64.9 76.7916 64.9ZM86.9256 66V51.72H88.5456V64.64H96.9656V66H86.9256ZM99.1327 66V51.72H100.753V64.64H109.173V66H99.1327Z" fill="#A2A2A2"/>
<g clip-path="url(#clip0_43_22)">
<path d="M61 85.308L66.25 80.058C66.3484 79.9594 66.4654 79.8812 66.5941 79.8279C66.7227 79.7745 66.8607 79.7471 67 79.7471C67.1393 79.7471 67.2773 79.7745 67.4059 79.8279C67.5346 79.8812 67.6516 79.9594 67.75 80.058L73 85.308M73 96.687L67.75 101.937C67.6516 102.036 67.5346 102.114 67.4059 102.167C67.2773 102.22 67.1393 102.248 67 102.248C66.8607 102.248 66.7227 102.22 66.5941 102.167C66.4654 102.114 66.3484 102.036 66.25 101.937L61 96.687M64.75 90.998C64.75 91.5947 64.9871 92.167 65.409 92.589C65.831 93.011 66.4033 93.248 67 93.248C67.5967 93.248 68.169 93.011 68.591 92.589C69.0129 92.167 69.25 91.5947 69.25 90.998C69.25 90.4013 69.0129 89.829 68.591 89.407C68.169 88.9851 67.5967 88.748 67 88.748C66.4033 88.748 65.831 88.9851 65.409 89.407C64.9871 89.829 64.75 90.4013 64.75 90.998Z" stroke="#A2A2A2" stroke-width="1.5"/>
</g>
<defs>
<clipPath id="clip0_43_22">
<rect width="24" height="24" fill="white" transform="translate(55 79)"/>
</clipPath>
</defs>
</svg>
