<svg width="399" height="132" viewBox="0 0 399 132" fill="none" xmlns="http://www.w3.org/2000/svg">
<path d="M8.76584 8.40976C7.91691 8.88879 7.5455 9.68718 7.5455 11.5501V41.7291C7.5455 43.592 7.91691 44.3904 8.76584 44.8694C8.76584 44.9759 8.76584 45.242 8.76584 45.242H2.18658C2.18658 45.242 2.18658 44.9759 2.18658 44.8694C2.98246 44.3904 3.35387 43.592 3.35387 41.7291V11.5501C3.35387 9.68718 2.98246 8.88879 2.18658 8.40976C2.18658 8.30331 2.18658 7.98395 2.18658 7.98395H8.76584C8.76584 7.98395 8.76584 8.30331 8.76584 8.40976ZM39.386 44.8694C39.386 44.9759 39.386 45.242 39.386 45.242H34.0271V30.9775C33.019 37.1517 30.313 45.5614 22.8848 45.5614C18.5871 45.5614 13.2812 41.8356 13.069 35.0227C12.7506 21.8759 24.9541 19.6404 30.8436 19.6404C32.0639 19.6404 33.1251 19.8533 34.0271 20.1194V10.9646C34.0271 9.1017 33.8679 8.56944 32.8068 8.40976C32.8068 8.30331 32.8068 7.98395 32.8068 7.98395L37.8473 6.86621H38.2187V41.7291C38.2187 43.592 38.5901 44.3904 39.386 44.8694ZM25.2725 44.6033C31.215 43.4323 34.0271 32.3081 34.0271 27.8372V20.3856C33.7618 20.3323 32.5415 19.9065 30.8436 19.9065C25.6969 20.013 16.4647 22.2485 17.2076 35.821C17.4729 40.4517 20.7094 45.4549 25.2725 44.6033ZM63.6012 28.0501C66.6256 28.8485 69.3846 31.9356 68.9601 36.7791C68.6418 40.5581 65.2991 45.5614 57.7648 45.5614C50.4425 45.5614 43.3857 41.942 43.1734 33.1598C42.9081 23.9517 51.2383 19.9598 57.075 19.6404C61.585 19.4275 67.7929 21.6098 68.5357 28.0501C68.0581 28.0501 64.7685 28.0501 64.7685 28.0501H63.6012ZM54.6874 20.2791C51.0792 20.971 48.7446 24.0049 47.7895 27.6243H64.7155C64.0257 22.9936 59.8871 19.2678 54.6874 20.2791ZM68.4826 36.8856C69.1193 31.3501 65.4583 28.0501 61.4258 28.0501H47.6834C46.9937 30.871 47.1528 34.0114 48.0548 36.5662C50.018 42.1549 53.9976 44.6033 59.4096 44.3904C63.9726 44.1775 67.952 41.0372 68.4826 36.8856ZM96.3707 44.8694C96.3707 44.9759 96.3707 45.242 96.3707 45.242H91.0118V37.7904C89.6323 42.4743 86.714 45.5614 81.6204 45.5614C77.2696 45.5614 73.0249 43.4856 72.3352 39.6533C71.4332 34.2243 74.6698 31.0307 78.7553 29.3275C77.3758 26.2404 79.0206 19.6404 86.1304 19.6404C90.5343 19.6404 95.2034 21.9823 95.2034 28.5291V41.7291C95.2034 43.592 95.5748 44.3904 96.3707 44.8694ZM85.6529 20.1727C80.8776 20.1727 77.6941 24.8033 79.2859 29.1146C82.151 28.0501 85.3345 27.6775 87.8283 27.6775C89.0486 27.6775 90.1098 27.8904 91.0118 28.1565V27.784C91.0118 23.7388 89.42 20.1727 85.6529 20.1727ZM82.8938 44.8694C87.5099 44.6033 89.9506 40.6646 91.0118 36.8323V28.6356C90.7465 28.5291 89.4731 28.1565 87.8283 28.1565C82.0449 28.1565 74.1922 31.0307 76.4738 40.3985C77.1635 43.2727 80.2409 45.0291 82.8938 44.8694ZM110.318 19.6404C113.077 19.6404 116.685 21.3969 118.807 23.0469L117.746 27.9436H117.481C115.836 23.4194 112.44 20.1194 109.416 20.1194C105.808 20.1194 103.791 22.142 103.526 24.3243C102.783 31.4565 120.664 29.5404 120.08 38.2162C119.762 42.421 115.836 45.5614 109.893 45.5614C105.595 45.5614 102.412 44.1243 99.5468 41.9952L100.661 36.6727H100.926C102.73 40.3985 106.71 44.8162 111.432 44.8162C115.252 44.8162 118.117 42.8469 118.436 40.5581C119.444 33.5856 100.926 36.6727 102.2 26.2404C102.624 22.7807 104.534 19.6404 110.318 19.6404ZM154.859 35.821L155.125 35.9275C154.116 40.9307 151.888 45.5614 146.317 45.5614C141.595 45.5614 138.676 42.4743 138.676 36.1936V20.0662H135.546V19.6404C140.056 19.6404 140.427 14.9033 140.427 12.3485H144.619C144.619 16.4469 140.586 19.4807 137.403 19.6404H149.129V20.0662H142.868V36.992C142.868 41.6227 144.141 45.1888 148.651 44.6033C152.153 44.1243 153.904 39.9194 154.859 35.821ZM180.906 41.7291C181.118 43.6452 181.595 44.3904 182.391 44.8694C182.391 44.9759 182.391 45.242 182.391 45.242H175.865C175.865 45.242 175.865 44.9759 175.865 44.8694C176.661 44.3904 176.926 43.4856 176.767 41.7291C176.555 39.9727 175.812 30.9775 175.547 28.2098C175.122 24.2178 173.159 19.6936 168.596 20.5985C162.654 21.7694 161.592 32.8936 161.592 37.3646V41.7291C161.592 43.592 161.964 44.3904 162.76 44.8694C162.76 44.9759 162.76 45.242 162.76 45.242H156.18C156.18 45.242 156.18 44.9759 156.18 44.8694C157.029 44.3904 157.401 43.592 157.401 41.7291V10.9646C157.401 9.1017 157.242 8.56944 156.18 8.40976C156.18 8.30331 156.18 7.98395 156.18 7.98395L161.168 6.86621H161.592V32.8404C162.229 26.8791 164.086 19.6404 170.984 19.6404C175.281 19.6404 178.996 22.621 179.632 29.0081C180.216 34.171 180.693 39.7598 180.906 41.7291ZM209.224 44.8694C209.224 44.9759 209.224 45.242 209.224 45.242H203.865V37.7904C202.486 42.4743 199.567 45.5614 194.474 45.5614C190.123 45.5614 185.878 43.4856 185.189 39.6533C184.287 34.2243 187.523 31.0307 191.609 29.3275C190.229 26.2404 191.874 19.6404 198.984 19.6404C203.388 19.6404 208.057 21.9823 208.057 28.5291V41.7291C208.057 43.592 208.428 44.3904 209.224 44.8694ZM198.506 20.1727C193.731 20.1727 190.547 24.8033 192.139 29.1146C195.004 28.0501 198.188 27.6775 200.682 27.6775C201.902 27.6775 202.963 27.8904 203.865 28.1565V27.784C203.865 23.7388 202.273 20.1727 198.506 20.1727ZM195.747 44.8694C200.363 44.6033 202.804 40.6646 203.865 36.8323V28.6356C203.6 28.5291 202.326 28.1565 200.682 28.1565C194.898 28.1565 187.046 31.0307 189.327 40.3985C190.017 43.2727 193.094 45.0291 195.747 44.8694ZM231.183 35.821L231.448 35.9275C230.44 40.9307 228.212 45.5614 222.64 45.5614C217.918 45.5614 215 42.4743 215 36.1936V20.0662H211.87V19.6404C216.379 19.6404 216.751 14.9033 216.751 12.3485H220.943C220.943 16.4469 216.91 19.4807 213.727 19.6404H225.453V20.0662H219.192V36.992C219.192 41.6227 220.465 45.1888 224.975 44.6033C228.477 44.1243 230.228 39.9194 231.183 35.821ZM269.882 54.2372C269.882 56.1001 270.041 56.6323 271.102 56.792C271.102 56.8985 271.102 57.1646 271.102 57.1646L266.115 58.3356H265.69V30.9775C264.735 37.1517 262.029 45.5614 254.601 45.5614C250.25 45.5614 244.945 41.8356 244.785 35.0227C244.414 21.8759 256.617 19.6404 262.56 19.6404C265.319 19.6404 267.388 20.8114 268.45 20.7581C269.192 20.7049 269.458 20.013 269.564 19.6404C269.67 19.6404 269.882 19.6404 269.882 19.6404V54.2372ZM265.69 27.8372V20.3856C265.425 20.3323 264.205 19.9065 262.507 19.9065C257.413 20.013 248.128 22.2485 248.871 35.821C249.136 40.4517 252.426 45.4549 256.936 44.6033C262.931 43.4323 265.69 32.3081 265.69 27.8372ZM299.562 44.8694C299.562 44.9759 299.562 45.242 299.562 45.242H294.15V32.3081C293.46 38.3227 291.656 45.5614 284.759 45.5614C279.877 45.5614 276.004 42.4743 276.004 36.1936V23.7388C276.004 21.8759 275.845 21.3436 274.837 21.184C274.837 21.0775 274.837 20.8114 274.837 20.8114L279.824 19.6404H280.196V36.992C280.196 41.6227 282.583 45.4549 287.146 44.6033C293.089 43.4323 294.15 32.3081 294.15 27.8372V23.7388C294.15 21.8759 293.991 21.3436 292.983 21.184C292.983 21.0775 292.983 20.8114 292.983 20.8114L297.97 19.6404H298.342V41.7291C298.342 43.592 298.713 44.3904 299.562 44.8694ZM308.642 41.7291C308.642 43.592 309.014 44.3904 309.863 44.8694C309.863 44.9759 309.863 45.242 309.863 45.242H303.283C303.283 45.242 303.283 44.9759 303.283 44.8694C304.079 44.3904 304.451 43.592 304.451 41.7291V23.7388C304.451 21.8759 304.292 21.3436 303.283 21.184C303.283 21.0775 303.283 20.8114 303.283 20.8114L308.271 19.6404H308.642V41.7291ZM306.414 15.3291C305.034 15.3291 303.92 14.2114 303.92 12.8275C303.92 11.4436 305.034 10.3259 306.414 10.3259C307.793 10.3259 308.908 11.4436 308.908 12.8275C308.908 14.2114 307.793 15.3291 306.414 15.3291ZM334.075 28.0501C337.099 28.8485 339.858 31.9356 339.434 36.7791C339.116 40.5581 335.773 45.5614 328.239 45.5614C320.916 45.5614 313.86 41.942 313.647 33.1598C313.382 23.9517 321.712 19.9598 327.549 19.6404C332.059 19.4275 338.267 21.6098 339.009 28.0501C338.532 28.0501 335.242 28.0501 335.242 28.0501H334.075ZM325.161 20.2791C321.553 20.971 319.219 24.0049 318.264 27.6243H335.189C334.499 22.9936 330.361 19.2678 325.161 20.2791ZM338.956 36.8856C339.593 31.3501 335.932 28.0501 331.9 28.0501H318.157C317.468 30.871 317.627 34.0114 318.529 36.5662C320.492 42.1549 324.471 44.6033 329.883 44.3904C334.446 44.1775 338.426 41.0372 338.956 36.8856ZM361.964 35.821L362.229 35.9275C361.221 40.9307 358.992 45.5614 353.421 45.5614C348.699 45.5614 345.781 42.4743 345.781 36.1936V20.0662H342.65V19.6404C347.16 19.6404 347.532 14.9033 347.532 12.3485H351.723C351.723 16.4469 347.691 19.4807 344.507 19.6404H356.233V20.0662H349.972V36.992C349.972 41.6227 351.246 45.1888 355.756 44.6033C359.258 44.1243 361.009 39.9194 361.964 35.821ZM368.644 41.7291C368.644 43.592 369.016 44.3904 369.811 44.8694C369.811 44.9759 369.811 45.242 369.811 45.242H363.285C363.285 45.242 363.285 44.9759 363.285 44.8694C364.081 44.3904 364.453 43.592 364.453 41.7291V10.9646C364.453 9.1017 364.293 8.56944 363.285 8.40976C363.285 8.30331 363.285 7.98395 363.285 7.98395L368.273 6.86621H368.644V41.7291ZM398.429 20.0662C396.147 22.4081 394.29 25.0162 392.327 29.913C392.327 29.913 388.082 40.5049 386.172 45.242C384.262 50.0323 381.874 54.0243 377.683 54.0243C374.818 54.0243 372.748 52.6936 371.422 50.2452L375.56 46.4662L375.879 46.7323C375.348 49.713 375.932 53.8114 378.85 53.492C381.609 53.1727 383.784 49.6598 385.535 45.721L378.744 29.7001C376.515 24.484 375.401 22.1952 372.854 20.0662V19.6404H380.972V20.0662C379.646 21.5033 380.07 22.9404 381.291 25.9211L387.605 40.7178L391.955 29.8598C393.919 24.963 394.555 22.0356 392.168 20.0662V19.6404H398.429V20.0662Z" fill="#2055CA"/>
<path d="M73.7137 95.966C71.1313 95.966 68.8853 95.6291 66.9752 94.9547C65.1001 94.316 63.5795 93.3936 62.4122 92.187C61.2799 91.016 60.5371 89.5614 60.1837 87.8225H64.4815C65.0471 89.4549 66.0908 90.661 67.6119 91.4418C69.1326 92.2578 71.1844 92.666 73.7667 92.666C75.6057 92.666 77.2505 92.3467 78.7012 91.708C80.1868 91.1049 81.3541 90.1644 82.203 88.887C83.087 87.6096 83.5295 86.0304 83.5295 84.1499V77.0176L84.007 77.4434C83.2642 79.1467 82.2911 80.513 81.0888 81.5418C79.9215 82.5707 78.595 83.3339 77.1094 83.8305C75.6588 84.292 74.1201 84.5225 72.4933 84.5225C70.0171 84.5225 67.7531 83.937 65.7018 82.766C63.6856 81.5951 62.0758 79.9807 60.8735 77.9225C59.6707 75.8642 59.0695 73.5047 59.0695 70.8434C59.0695 69.1759 59.2993 67.6499 59.7593 66.266C60.2188 64.8465 60.8555 63.5872 61.6694 62.487C62.4828 61.3517 63.4378 60.3936 64.5345 59.6128C65.6663 58.7968 66.8866 58.1757 68.1956 57.7499C69.5396 57.3241 70.9721 57.1112 72.4933 57.1112C74.1201 57.1112 75.6768 57.3597 77.1625 57.8563C78.6481 58.3178 79.9921 59.063 81.1949 60.0918C82.3972 61.0856 83.3348 62.363 84.007 63.9241L83.5295 64.4031V57.8031H87.6681V84.416C87.6681 86.4743 87.2786 88.2307 86.5008 89.6854C85.7224 91.14 84.6612 92.3291 83.3173 93.2515C82.0083 94.1739 80.5052 94.8483 78.8073 95.2741C77.1444 95.7356 75.4466 95.966 73.7137 95.966ZM73.2361 81.0628C74.5446 81.0628 75.7299 80.9031 76.7911 80.5838C77.8522 80.2644 78.8073 79.8029 79.6562 79.1999C80.5402 78.5969 81.283 77.8693 81.8847 77.0176C82.4858 76.166 82.9278 75.208 83.2111 74.1434C83.5295 73.0789 83.6887 71.9612 83.6887 70.7902C83.6887 68.732 83.2642 66.9404 82.4153 65.4144C81.5663 63.8533 80.3635 62.6467 78.8073 61.7951C77.2506 60.9078 75.3935 60.4644 73.2361 60.4644C72.0333 60.4644 70.9016 60.6417 69.8404 60.9967C68.8142 61.316 67.8947 61.7775 67.0814 62.3805C66.2674 62.9485 65.5777 63.658 65.0121 64.5096C64.4815 65.3612 64.0745 66.3193 63.7917 67.3838C63.5084 68.4126 63.3673 69.5485 63.3673 70.7902C63.3673 72.7771 63.7562 74.5517 64.5345 76.1128C65.3479 77.6739 66.4977 78.8981 67.9833 79.7854C69.469 80.637 71.2199 81.0628 73.2361 81.0628ZM91.3498 85.1612V57.8031H95.4884V65.8402L95.2231 65.6805C95.6475 63.7288 96.2842 62.1852 97.1332 61.0499C97.9821 59.8789 98.9902 59.0449 100.158 58.5483C101.325 58.0517 102.616 57.8031 104.031 57.8031H106.365V61.7418H103.978C102.28 61.7418 100.794 62.1676 99.5208 63.0193C98.2474 63.8352 97.2568 64.971 96.5495 66.4257C95.8417 67.8804 95.4884 69.5128 95.4884 71.3225V85.1612H91.3498ZM120.068 85.8531C117.132 85.8531 114.568 85.2501 112.374 84.0434C110.181 82.8368 108.483 81.1517 107.281 78.987C106.078 76.8223 105.477 74.3207 105.477 71.4822C105.477 69.7789 105.689 68.1822 106.113 66.6918C106.573 65.2015 107.21 63.8709 108.023 62.6999C108.872 61.5289 109.899 60.5352 111.101 59.7192C112.304 58.8676 113.648 58.2289 115.133 57.8031C116.654 57.3417 118.299 57.1112 120.068 57.1112C123.075 57.1112 125.674 57.7142 127.867 58.9209C130.061 60.1275 131.741 61.8126 132.908 63.9773C134.111 66.1063 134.712 68.608 134.712 71.4822C134.712 73.1854 134.482 74.7822 134.022 76.2725C133.598 77.7628 132.961 79.0934 132.112 80.2644C131.299 81.4354 130.29 82.4467 129.088 83.2983C127.92 84.1142 126.576 84.7354 125.055 85.1612C123.535 85.6227 121.872 85.8531 120.068 85.8531ZM120.068 82.4999C121.483 82.4999 122.739 82.3227 123.835 81.9676C124.932 81.5775 125.887 81.0452 126.7 80.3709C127.514 79.6965 128.204 78.8981 128.769 77.9757C129.335 77.0533 129.742 76.042 129.99 74.9418C130.273 73.8417 130.414 72.6707 130.414 71.4289C130.414 69.3356 130.025 67.4727 129.247 65.8402C128.504 64.2078 127.355 62.9128 125.798 61.9547C124.277 60.961 122.367 60.4644 120.068 60.4644C118.688 60.4644 117.433 60.6597 116.301 61.0499C115.204 61.4049 114.249 61.9191 113.435 62.5934C112.658 63.2322 111.985 63.9949 111.419 64.8822C110.854 65.7694 110.429 66.7626 110.146 67.8628C109.899 68.963 109.774 70.1515 109.774 71.4289C109.774 73.4872 110.146 75.3501 110.889 77.0176C111.667 78.6852 112.817 80.0158 114.337 81.0096C115.894 82.0033 117.804 82.4999 120.068 82.4999ZM142.62 85.1612L133.494 57.8031H138.057L145.698 82.4467H144.371L152.436 57.8031H156.628L164.533 82.3934L163.207 82.4467L171.06 57.8031H175.092L165.913 85.1612H161.615L153.285 59.2934H155.513L146.918 85.1612H142.62ZM187.02 85.1612V57.8031H191.211V85.1612H187.02ZM186.701 52.3741V47.158H191.423V52.3741H186.701ZM195.011 85.1612V57.8031H199.149V64.8822L198.778 64.4563C199.415 62.7531 200.264 61.3693 201.325 60.3047C202.386 59.2046 203.641 58.4062 205.092 57.9096C206.577 57.3773 208.204 57.1112 209.973 57.1112C211.671 57.1112 213.227 57.3597 214.642 57.8563C216.057 58.3529 217.277 59.0805 218.303 60.0386C219.329 60.961 220.107 62.1501 220.638 63.6047C221.204 65.0594 221.487 66.7451 221.487 68.6612V85.1612H217.348V69.2999C217.348 67.4194 217.012 65.8402 216.34 64.5628C215.704 63.2497 214.748 62.2565 213.475 61.5822C212.237 60.8727 210.698 60.5176 208.859 60.5176C207.019 60.5176 205.357 60.9259 203.872 61.7418C202.421 62.5578 201.272 63.6755 200.423 65.0951C199.574 66.5146 199.149 68.1465 199.149 69.9918V85.1612H195.011ZM235.065 85.1612C232.836 85.1612 231.05 84.5757 229.706 83.4047C228.397 82.2338 227.743 80.5838 227.743 78.4547V50.4047H231.828V77.816C231.828 79.1642 232.217 80.1755 232.995 80.8499C233.774 81.5243 234.746 81.8612 235.914 81.8612H239.787V85.1612H235.065ZM221.906 61.1031V57.8031H228.485V61.1031H221.906ZM231.085 61.1031V57.8031H239.787V61.1031H231.085ZM254.057 85.8531C251.121 85.8531 248.557 85.2501 246.364 84.0434C244.171 82.8368 242.473 81.1517 241.27 78.987C240.067 76.8223 239.466 74.3207 239.466 71.4822C239.466 69.7789 239.679 68.1822 240.103 66.6918C240.563 65.2015 241.199 63.8709 242.013 62.6999C242.862 61.5289 243.888 60.5352 245.091 59.7192C246.293 58.8676 247.637 58.2289 249.123 57.8031C250.644 57.3417 252.288 57.1112 254.057 57.1112C257.064 57.1112 259.664 57.7142 261.857 58.9209C264.05 60.1275 265.73 61.8126 266.898 63.9773C268.1 66.1063 268.702 68.608 268.702 71.4822C268.702 73.1854 268.471 74.7822 268.012 76.2725C267.587 77.7628 266.951 79.0934 266.102 80.2644C265.288 81.4354 264.28 82.4467 263.077 83.2983C261.91 84.1142 260.566 84.7354 259.045 85.1612C257.524 85.6227 255.861 85.8531 254.057 85.8531ZM254.057 82.4999C255.472 82.4999 256.728 82.3227 257.825 81.9676C258.921 81.5775 259.876 81.0452 260.69 80.3709C261.503 79.6965 262.193 78.8981 262.759 77.9757C263.325 77.0533 263.732 76.042 263.979 74.9418C264.262 73.8417 264.404 72.6707 264.404 71.4289C264.404 69.3356 264.014 67.4727 263.237 65.8402C262.494 64.2078 261.344 62.9128 259.788 61.9547C258.267 60.961 256.356 60.4644 254.057 60.4644C252.678 60.4644 251.422 60.6597 250.29 61.0499C249.194 61.4049 248.238 61.9191 247.425 62.5934C246.647 63.2322 245.974 63.9949 245.409 64.8822C244.843 65.7694 244.418 66.7626 244.135 67.8628C243.888 68.963 243.764 70.1515 243.764 71.4289C243.764 73.4872 244.135 75.3501 244.878 77.0176C245.656 78.6852 246.806 80.0158 248.327 81.0096C249.883 82.0033 251.793 82.4999 254.057 82.4999Z" fill="#2055CA"/>
<path d="M140.274 115.34C142.237 120.929 146.747 123.91 152.106 123.378C157.359 122.845 160.224 118.161 161.073 116.671L161.391 116.831C159.746 119.811 156.616 123.963 150.302 124.336C142.98 124.708 135.658 120.716 135.446 111.934C135.18 102.726 143.511 98.4146 149.347 98.4146C152.371 98.4146 156.616 99.7985 159.375 101.236L158.579 105.653H158.261C156.987 102.46 151.947 97.8824 146.959 99.0533C140.433 100.544 138.046 108.953 140.274 115.34ZM177.617 98.4146C180.482 98.4146 182.127 99.4259 183.931 101.555L180.694 106.132L180.323 105.919C180.216 102.886 178.731 98.9469 175.866 99.3727C170.666 100.171 169.976 113.903 169.976 118.428V120.503C169.976 122.366 170.348 123.165 171.143 123.644C171.143 123.75 171.143 124.016 171.143 124.016H164.564C164.564 124.016 164.564 123.75 164.564 123.644C165.413 123.165 165.784 122.366 165.784 120.503V102.513C165.784 100.65 165.625 100.118 164.564 99.9582C164.564 99.8517 164.564 99.5856 164.564 99.5856L169.552 98.4146H169.976V112.679C170.507 106.239 171.992 98.4146 177.617 98.4146ZM205.512 106.824C208.536 107.623 211.295 110.71 210.87 115.553C210.552 119.332 207.209 124.336 199.675 124.336C192.353 124.336 185.296 120.716 185.084 111.934C184.819 102.726 193.149 98.734 198.985 98.4146C203.495 98.2017 209.703 100.384 210.446 106.824C209.968 106.824 206.679 106.824 206.679 106.824H205.512ZM196.598 99.0533C192.99 99.7453 190.655 102.779 189.7 106.398H206.626C205.936 101.768 201.797 98.042 196.598 99.0533ZM210.393 115.66C211.03 110.124 207.369 106.824 203.336 106.824H189.594C188.904 109.645 189.063 112.786 189.965 115.34C191.929 120.929 195.908 123.378 201.32 123.165C205.883 122.952 209.862 119.811 210.393 115.66ZM238.282 123.644C238.282 123.75 238.282 124.016 238.282 124.016H232.923V116.565C231.543 121.248 228.625 124.336 223.531 124.336C219.18 124.336 214.936 122.26 214.246 118.428C213.344 112.998 216.581 109.805 220.666 108.102C219.287 105.015 220.931 98.4146 228.041 98.4146C232.445 98.4146 237.114 100.757 237.114 107.303V120.503C237.114 122.366 237.486 123.165 238.282 123.644ZM227.564 98.9469C222.788 98.9469 219.605 103.578 221.197 107.889C224.062 106.824 227.245 106.452 229.739 106.452C230.959 106.452 232.021 106.665 232.923 106.931V106.558C232.923 102.513 231.331 98.9469 227.564 98.9469ZM224.805 123.644C229.421 123.378 231.861 119.439 232.923 115.607V107.41C232.657 107.303 231.384 106.931 229.739 106.931C223.956 106.931 216.103 109.805 218.385 119.173C219.074 122.047 222.152 123.803 224.805 123.644ZM260.24 114.595L260.506 114.702C259.497 119.705 257.269 124.336 251.698 124.336C246.976 124.336 244.057 121.248 244.057 114.968V98.8404H240.927V98.4146C245.437 98.4146 245.808 93.6775 245.808 91.1227H250C250 95.2211 245.968 98.2549 242.784 98.4146H254.51V98.8404H248.249V115.766C248.249 120.397 249.523 123.963 254.032 123.378C257.534 122.898 259.285 118.694 260.24 114.595ZM266.403 120.503C266.403 122.366 266.774 123.165 267.623 123.644C267.623 123.75 267.623 124.016 267.623 124.016H261.044C261.044 124.016 261.044 123.75 261.044 123.644C261.84 123.165 262.211 122.366 262.211 120.503V102.513C262.211 100.65 262.052 100.118 261.044 99.9582C261.044 99.8517 261.044 99.5856 261.044 99.5856L266.031 98.4146H266.403V120.503ZM264.174 94.1033C262.795 94.1033 261.68 92.9856 261.68 91.6017C261.68 90.2178 262.795 89.1001 264.174 89.1001C265.554 89.1001 266.668 90.2178 266.668 91.6017C266.668 92.9856 265.554 94.1033 264.174 94.1033ZM285.734 98.4146C292.844 98.4146 298.998 102.886 298.998 110.231C298.998 118.747 291.729 124.336 284.62 124.336C277.457 124.336 271.355 119.971 271.355 112.519C271.355 103.737 278.624 98.4146 285.734 98.4146ZM288.705 123.378C294.754 121.621 296.399 114.968 294.542 108.528C292.685 102.14 287.697 97.6162 281.648 99.3727C275.6 101.129 273.955 107.782 275.812 114.223C277.669 120.61 282.656 125.187 288.705 123.378ZM327.428 120.503C327.641 122.419 328.118 123.165 328.914 123.644C328.914 123.75 328.914 124.016 328.914 124.016H322.335C322.335 124.016 322.335 123.75 322.335 123.644C323.184 123.165 323.396 122.26 323.237 120.503C323.078 118.747 322.282 109.752 322.016 106.984C321.645 102.992 319.682 98.4678 315.119 99.3727C309.176 100.544 308.062 111.668 308.062 116.139V120.503C308.062 122.366 308.433 123.165 309.282 123.644C309.282 123.75 309.282 124.016 309.282 124.016H302.703C302.703 124.016 302.703 123.75 302.703 123.644C303.499 123.165 303.87 122.366 303.87 120.503V102.513C303.87 100.65 303.711 100.118 302.703 99.9582C302.703 99.8517 302.703 99.5856 302.703 99.5856L307.691 98.4146H308.062V111.615C308.752 105.653 310.556 98.4146 317.453 98.4146C321.804 98.4146 325.518 101.395 326.155 107.782C326.685 112.945 327.216 118.534 327.428 120.503ZM335 118.534C336.592 118.534 337.865 119.811 337.865 121.408C337.865 123.005 336.592 124.336 335 124.336C333.409 124.336 332.082 123.005 332.082 121.408C332.082 119.811 333.409 118.534 335 118.534Z" fill="#2055CA"/>
</svg>
