<svg width="739" height="262" viewBox="0 0 739 262" fill="none" xmlns="http://www.w3.org/2000/svg">
<path d="M18.1162 12.88C16.3562 13.87 15.5862 15.52 15.5862 19.37V81.74C15.5862 85.59 16.3562 87.24 18.1162 88.23C18.1162 88.45 18.1162 89 18.1162 89H4.47617C4.47617 89 4.47617 88.45 4.47617 88.23C6.12617 87.24 6.89617 85.59 6.89617 81.74V19.37C6.89617 15.52 6.12617 13.87 4.47617 12.88C4.47617 12.66 4.47617 12 4.47617 12H18.1162C18.1162 12 18.1162 12.66 18.1162 12.88ZM81.5973 88.23C81.5973 88.45 81.5973 89 81.5973 89H70.4873V59.52C68.3973 72.28 62.7873 89.66 47.3873 89.66C38.4773 89.66 27.4773 81.96 27.0373 67.88C26.3773 40.71 51.6773 36.09 63.8873 36.09C66.4173 36.09 68.6173 36.53 70.4873 37.08V18.16C70.4873 14.31 70.1573 13.21 67.9573 12.88C67.9573 12.66 67.9573 12 67.9573 12L78.4073 9.69H79.1773V81.74C79.1773 85.59 79.9473 87.24 81.5973 88.23ZM52.3373 87.68C64.6573 85.26 70.4873 62.27 70.4873 53.03V37.63C69.9373 37.52 67.4073 36.64 63.8873 36.64C53.2173 36.86 34.0773 41.48 35.6173 69.53C36.1673 79.1 42.8773 89.44 52.3373 87.68ZM131.799 53.47C138.069 55.12 143.789 61.5 142.909 71.51C142.249 79.32 135.319 89.66 119.699 89.66C104.519 89.66 89.8895 82.18 89.4495 64.03C88.8995 45 106.169 36.75 118.269 36.09C127.619 35.65 140.489 40.16 142.029 53.47C141.039 53.47 134.219 53.47 134.219 53.47H131.799ZM113.319 37.41C105.839 38.84 100.999 45.11 99.0195 52.59H134.109C132.679 43.02 124.099 35.32 113.319 37.41ZM141.919 71.73C143.239 60.29 135.649 53.47 127.289 53.47H98.7995C97.3695 59.3 97.6995 65.79 99.5695 71.07C103.639 82.62 111.889 87.68 123.109 87.24C132.569 86.8 140.819 80.31 141.919 71.73ZM199.737 88.23C199.737 88.45 199.737 89 199.737 89H188.627V73.6C185.767 83.28 179.717 89.66 169.157 89.66C160.137 89.66 151.337 85.37 149.907 77.45C148.037 66.23 154.747 59.63 163.217 56.11C160.357 49.73 163.767 36.09 178.507 36.09C187.637 36.09 197.317 40.93 197.317 54.46V81.74C197.317 85.59 198.087 87.24 199.737 88.23ZM177.517 37.19C167.617 37.19 161.017 46.76 164.317 55.67C170.257 53.47 176.857 52.7 182.027 52.7C184.557 52.7 186.757 53.14 188.627 53.69V52.92C188.627 44.56 185.327 37.19 177.517 37.19ZM171.797 88.23C181.367 87.68 186.427 79.54 188.627 71.62V54.68C188.077 54.46 185.437 53.69 182.027 53.69C170.037 53.69 153.757 59.63 158.487 78.99C159.917 84.93 166.297 88.56 171.797 88.23ZM228.652 36.09C234.372 36.09 241.852 39.72 246.252 43.13L244.052 53.25H243.502C240.092 43.9 233.052 37.08 226.782 37.08C219.302 37.08 215.122 41.26 214.572 45.77C213.032 60.51 250.102 56.55 248.892 74.48C248.232 83.17 240.092 89.66 227.772 89.66C218.862 89.66 212.262 86.69 206.322 82.29L208.632 71.29H209.182C212.922 78.99 221.172 88.12 230.962 88.12C238.882 88.12 244.822 84.05 245.482 79.32C247.572 64.91 209.182 71.29 211.822 49.73C212.702 42.58 216.662 36.09 228.652 36.09ZM320.994 69.53L321.544 69.75C319.454 80.09 314.834 89.66 303.284 89.66C293.494 89.66 287.444 83.28 287.444 70.3V36.97H280.954V36.09C290.304 36.09 291.074 26.3 291.074 21.02H299.764C299.764 29.49 291.404 35.76 284.804 36.09H309.114V36.97H296.134V71.95C296.134 81.52 298.774 88.89 308.124 87.68C315.384 86.69 319.014 78 320.994 69.53ZM374.994 81.74C375.434 85.7 376.424 87.24 378.074 88.23C378.074 88.45 378.074 89 378.074 89H364.544C364.544 89 364.544 88.45 364.544 88.23C366.194 87.24 366.744 85.37 366.414 81.74C365.974 78.11 364.434 59.52 363.884 53.8C363.004 45.55 358.934 36.2 349.474 38.07C337.154 40.49 334.954 63.48 334.954 72.72V81.74C334.954 85.59 335.724 87.24 337.374 88.23C337.374 88.45 337.374 89 337.374 89H323.734C323.734 89 323.734 88.45 323.734 88.23C325.494 87.24 326.264 85.59 326.264 81.74V18.16C326.264 14.31 325.934 13.21 323.734 12.88C323.734 12.66 323.734 12 323.734 12L334.074 9.69H334.954V63.37C336.274 51.05 340.124 36.09 354.424 36.09C363.334 36.09 371.034 42.25 372.354 55.45C373.564 66.12 374.554 77.67 374.994 81.74ZM433.702 88.23C433.702 88.45 433.702 89 433.702 89H422.592V73.6C419.732 83.28 413.682 89.66 403.122 89.66C394.102 89.66 385.302 85.37 383.872 77.45C382.002 66.23 388.712 59.63 397.182 56.11C394.322 49.73 397.732 36.09 412.472 36.09C421.602 36.09 431.282 40.93 431.282 54.46V81.74C431.282 85.59 432.052 87.24 433.702 88.23ZM411.482 37.19C401.582 37.19 394.982 46.76 398.282 55.67C404.222 53.47 410.822 52.7 415.992 52.7C418.522 52.7 420.722 53.14 422.592 53.69V52.92C422.592 44.56 419.292 37.19 411.482 37.19ZM405.762 88.23C415.332 87.68 420.392 79.54 422.592 71.62V54.68C422.042 54.46 419.402 53.69 415.992 53.69C404.002 53.69 387.722 59.63 392.452 78.99C393.882 84.93 400.262 88.56 405.762 88.23ZM479.227 69.53L479.777 69.75C477.687 80.09 473.067 89.66 461.517 89.66C451.727 89.66 445.677 83.28 445.677 70.3V36.97H439.187V36.09C448.537 36.09 449.307 26.3 449.307 21.02H457.997C457.997 29.49 449.637 35.76 443.037 36.09H467.347V36.97H454.367V71.95C454.367 81.52 457.007 88.89 466.357 87.68C473.617 86.69 477.247 78 479.227 69.53ZM543.728 36.97H522.498V81.74C522.498 85.59 523.268 87.24 524.918 88.23C524.918 88.45 524.918 89 524.918 89H511.388C511.388 89 511.388 88.45 511.388 88.23C513.038 87.24 513.808 85.59 513.808 81.74V45.77C513.808 39.83 511.608 36.97 507.318 36.97V36.09H523.488C516.888 35.76 507.758 30.37 507.758 23C507.758 15.52 513.808 9.69 524.698 9.69C529.428 9.69 535.038 10.9 538.998 13.76L537.348 25.31H536.578C533.938 18.6 526.788 7.82 519.418 11.23C515.678 12.88 514.358 18.71 515.348 24.65C516.118 29.38 519.638 36.09 528.548 36.09H543.728V36.97ZM559.248 81.74C559.248 85.59 560.018 87.24 561.668 88.23C561.668 88.45 561.668 89 561.668 89H548.138C548.138 89 548.138 88.45 548.138 88.23C549.788 87.24 550.558 85.59 550.558 81.74V18.16C550.558 14.31 550.228 13.21 548.138 12.88C548.138 12.66 548.138 12 548.138 12L558.478 9.69H559.248V81.74ZM599.218 36.09C613.958 36.09 626.718 45.33 626.718 60.51C626.718 78.11 611.648 89.66 596.908 89.66C582.058 89.66 569.408 80.64 569.408 65.24C569.408 47.09 584.478 36.09 599.218 36.09ZM605.378 87.68C617.918 84.05 621.328 70.3 617.478 56.99C613.628 43.79 603.288 34.44 590.748 38.07C578.208 41.7 574.798 55.45 578.648 68.76C582.498 81.96 592.838 91.42 605.378 87.68ZM696.298 36.09H709.278V36.97C704.878 41.15 701.798 45.88 698.278 54.24L688.488 79.87L692.008 89H683.318C683.318 89 669.788 53.58 669.238 52.15L660.218 81.19L663.518 89H654.828L641.188 56.88C636.568 46.1 634.258 41.37 628.868 36.97V36.09H645.808V36.97C642.948 39.94 643.938 42.91 646.468 49.07L659.668 80.09L668.798 51.05C666.048 44.23 664.068 40.49 659.778 36.97V36.09H676.718V36.97C673.418 40.38 674.848 43.9 677.818 51.93L688.158 78.77L696.298 57.21C700.258 46.98 701.248 40.93 696.298 36.97V36.09Z" fill="white"/>
<path d="M135.431 171V119.6H143.331V171H135.431ZM134.831 109.4V99.6H143.731V109.4H134.831ZM157.492 171V119.6H165.292V132.9L164.592 132.1C165.792 128.9 167.392 126.3 169.392 124.3C171.392 122.233 173.758 120.733 176.492 119.8C179.292 118.8 182.358 118.3 185.692 118.3C188.892 118.3 191.825 118.767 194.492 119.7C197.158 120.633 199.458 122 201.392 123.8C203.325 125.533 204.792 127.767 205.792 130.5C206.858 133.233 207.392 136.4 207.392 140V171H199.592V141.2C199.592 137.667 198.958 134.7 197.692 132.3C196.492 129.833 194.692 127.967 192.292 126.7C189.958 125.367 187.058 124.7 183.592 124.7C180.125 124.7 176.992 125.467 174.192 127C171.458 128.533 169.292 130.633 167.692 133.3C166.092 135.967 165.292 139.033 165.292 142.5V171H157.492ZM239.982 171C235.782 171 232.416 169.9 229.882 167.7C227.416 165.5 226.182 162.4 226.182 158.4V105.7H233.882V157.2C233.882 159.733 234.616 161.633 236.082 162.9C237.549 164.167 239.382 164.8 241.582 164.8H248.882V171H239.982ZM215.182 125.8V119.6H227.582V125.8H215.182ZM232.482 125.8V119.6H248.882V125.8H232.482ZM282.778 172.3C277.244 172.3 272.411 171.167 268.278 168.9C264.144 166.633 260.944 163.467 258.678 159.4C256.411 155.333 255.278 150.633 255.278 145.3C255.278 142.1 255.678 139.1 256.478 136.3C257.344 133.5 258.544 131 260.078 128.8C261.678 126.6 263.611 124.733 265.878 123.2C268.144 121.6 270.678 120.4 273.478 119.6C276.344 118.733 279.444 118.3 282.778 118.3C288.444 118.3 293.344 119.433 297.478 121.7C301.611 123.967 304.778 127.133 306.978 131.2C309.244 135.2 310.378 139.9 310.378 145.3C310.378 148.5 309.944 151.5 309.078 154.3C308.278 157.1 307.078 159.6 305.478 161.8C303.944 164 302.044 165.9 299.778 167.5C297.578 169.033 295.044 170.2 292.178 171C289.311 171.867 286.178 172.3 282.778 172.3ZM282.778 166C285.444 166 287.811 165.667 289.878 165C291.944 164.267 293.744 163.267 295.278 162C296.811 160.733 298.111 159.233 299.178 157.5C300.244 155.767 301.011 153.867 301.478 151.8C302.011 149.733 302.278 147.533 302.278 145.2C302.278 141.267 301.544 137.767 300.078 134.7C298.678 131.633 296.511 129.2 293.578 127.4C290.711 125.533 287.111 124.6 282.778 124.6C280.178 124.6 277.811 124.967 275.678 125.7C273.611 126.367 271.811 127.333 270.278 128.6C268.811 129.8 267.544 131.233 266.478 132.9C265.411 134.567 264.611 136.433 264.078 138.5C263.611 140.567 263.378 142.8 263.378 145.2C263.378 149.067 264.078 152.567 265.478 155.7C266.944 158.833 269.111 161.333 271.978 163.2C274.911 165.067 278.511 166 282.778 166ZM349.493 171V119.6H357.393V171H349.493ZM348.893 109.4V99.6H357.793V109.4H348.893ZM371.554 171V119.6H379.354V132.9L378.654 132.1C379.854 128.9 381.454 126.3 383.454 124.3C385.454 122.233 387.821 120.733 390.554 119.8C393.354 118.8 396.421 118.3 399.754 118.3C402.954 118.3 405.888 118.767 408.554 119.7C411.221 120.633 413.521 122 415.454 123.8C417.388 125.533 418.854 127.767 419.854 130.5C420.921 133.233 421.454 136.4 421.454 140V171H413.654V141.2C413.654 137.667 413.021 134.7 411.754 132.3C410.554 129.833 408.754 127.967 406.354 126.7C404.021 125.367 401.121 124.7 397.654 124.7C394.188 124.7 391.054 125.467 388.254 127C385.521 128.533 383.354 130.633 381.754 133.3C380.154 135.967 379.354 139.033 379.354 142.5V171H371.554ZM434.936 171V99.6H442.736V150.2L440.236 149L471.436 119.6H481.436L459.036 141C460.969 141.333 462.569 141.933 463.836 142.8C465.102 143.667 466.502 145.2 468.036 147.4L485.836 171H476.236L460.436 149.7C459.036 147.7 457.469 146.633 455.736 146.5C454.002 146.367 452.269 147.133 450.536 148.8L440.136 158.4L442.736 152.4V171H434.936ZM514.707 172.3C509.107 172.3 504.273 171.167 500.207 168.9C496.14 166.633 492.973 163.467 490.707 159.4C488.507 155.333 487.407 150.633 487.407 145.3C487.407 142.033 487.807 139.033 488.607 136.3C489.473 133.5 490.673 131 492.207 128.8C493.807 126.6 495.707 124.7 497.907 123.1C500.173 121.5 502.707 120.3 505.507 119.5C508.373 118.7 511.473 118.3 514.807 118.3C518.407 118.3 521.807 118.833 525.007 119.9C528.273 120.9 531.107 122.533 533.507 124.8C535.907 127.067 537.74 130.033 539.007 133.7C540.273 137.367 540.74 141.867 540.407 147.2H492.007V141.3H532.707C532.507 138.5 531.973 136.1 531.107 134.1C530.24 132.033 529.04 130.3 527.507 128.9C525.973 127.433 524.14 126.367 522.007 125.7C519.873 124.967 517.473 124.6 514.807 124.6C512.14 124.6 509.74 124.933 507.607 125.6C505.54 126.267 503.74 127.233 502.207 128.5C500.673 129.767 499.407 131.267 498.407 133C497.407 134.733 496.64 136.633 496.107 138.7C495.64 140.767 495.407 142.967 495.407 145.3C495.407 149.1 496.107 152.6 497.507 155.8C498.907 158.933 501.04 161.433 503.907 163.3C506.773 165.1 510.407 166 514.807 166C519.14 166 522.707 165.267 525.507 163.8C528.307 162.267 530.34 160.133 531.607 157.4H539.707C538.84 160.2 537.307 162.733 535.107 165C532.973 167.2 530.207 168.967 526.807 170.3C523.407 171.633 519.373 172.3 514.707 172.3ZM574.032 172.3C569.232 172.3 564.932 171.2 561.132 169C557.332 166.8 554.332 163.667 552.132 159.6C549.932 155.533 548.832 150.7 548.832 145.1C548.832 141.833 549.232 138.8 550.032 136C550.832 133.133 551.999 130.633 553.532 128.5C555.066 126.3 556.866 124.467 558.932 123C560.999 121.467 563.299 120.3 565.832 119.5C568.432 118.7 571.166 118.3 574.032 118.3C577.032 118.3 579.932 118.767 582.732 119.7C585.532 120.567 588.066 121.967 590.332 123.9C592.666 125.833 594.499 128.367 595.832 131.5L595.032 132.4V99.6H602.732V171H595.032V158.1L595.832 159.1C594.499 162.1 592.666 164.6 590.332 166.6C588.066 168.533 585.532 169.967 582.732 170.9C579.932 171.833 577.032 172.3 574.032 172.3ZM575.632 166C578.032 166 580.266 165.667 582.332 165C584.399 164.267 586.199 163.3 587.732 162.1C589.332 160.833 590.699 159.333 591.832 157.6C592.966 155.867 593.832 153.967 594.432 151.9C595.032 149.767 595.332 147.533 595.332 145.2C595.332 141.267 594.499 137.767 592.832 134.7C591.232 131.567 588.966 129.1 586.032 127.3C583.166 125.5 579.699 124.6 575.632 124.6C573.299 124.6 571.132 124.967 569.132 125.7C567.199 126.367 565.466 127.3 563.932 128.5C562.466 129.7 561.199 131.167 560.132 132.9C559.066 134.567 558.266 136.433 557.732 138.5C557.266 140.567 557.032 142.767 557.032 145.1C557.032 149.033 557.732 152.6 559.132 155.8C560.599 158.933 562.732 161.433 565.532 163.3C568.332 165.1 571.699 166 575.632 166Z" fill="white"/>
<path d="M234.687 225.07C238.757 236.62 248.107 242.78 259.217 241.68C270.107 240.58 276.047 230.9 277.807 227.82L278.467 228.15C275.057 234.31 268.567 242.89 255.477 243.66C240.297 244.43 225.117 236.18 224.677 218.03C224.127 199 241.397 190.09 253.497 190.09C259.767 190.09 268.567 192.95 274.287 195.92L272.637 205.05H271.977C269.337 198.45 258.887 188.99 248.547 191.41C235.017 194.49 230.067 211.87 234.687 225.07ZM296.156 235.74C296.156 239.59 296.926 241.24 298.576 242.23C298.576 242.45 298.576 243 298.576 243H285.046C285.046 243 285.046 242.45 285.046 242.23C286.696 241.24 287.466 239.59 287.466 235.74V172.16C287.466 168.31 287.136 167.21 285.046 166.88C285.046 166.66 285.046 166 285.046 166L295.386 163.69H296.156V235.74ZM355.375 242.23C355.375 242.45 355.375 243 355.375 243H344.265V227.6C341.405 237.28 335.355 243.66 324.795 243.66C315.775 243.66 306.975 239.37 305.545 231.45C303.675 220.23 310.385 213.63 318.855 210.11C315.995 203.73 319.405 190.09 334.145 190.09C343.275 190.09 352.955 194.93 352.955 208.46V235.74C352.955 239.59 353.725 241.24 355.375 242.23ZM333.155 191.19C323.255 191.19 316.655 200.76 319.955 209.67C325.895 207.47 332.495 206.7 337.665 206.7C340.195 206.7 342.395 207.14 344.265 207.69V206.92C344.265 198.56 340.965 191.19 333.155 191.19ZM327.435 242.23C337.005 241.68 342.065 233.54 344.265 225.62V208.68C343.715 208.46 341.075 207.69 337.665 207.69C325.675 207.69 309.395 213.63 314.125 232.99C315.555 238.93 321.935 242.56 327.435 242.23ZM390.094 190.09C396.034 190.09 399.444 192.18 403.184 196.58L396.474 206.04L395.704 205.6C395.484 199.33 392.404 191.19 386.464 192.07C375.684 193.72 374.254 222.1 374.254 231.45V235.74C374.254 239.59 375.024 241.24 376.674 242.23C376.674 242.45 376.674 243 376.674 243H363.034C363.034 243 363.034 242.45 363.034 242.23C364.794 241.24 365.564 239.59 365.564 235.74V198.56C365.564 194.71 365.234 193.61 363.034 193.28C363.034 193.06 363.034 192.51 363.034 192.51L373.374 190.09H374.254V219.57C375.354 206.26 378.434 190.09 390.094 190.09ZM417.65 235.74C417.65 239.59 418.42 241.24 420.18 242.23C420.18 242.45 420.18 243 420.18 243H406.54C406.54 243 406.54 242.45 406.54 242.23C408.19 241.24 408.96 239.59 408.96 235.74V198.56C408.96 194.71 408.63 193.61 406.54 193.28C406.54 193.06 406.54 192.51 406.54 192.51L416.88 190.09H417.65V235.74ZM413.03 181.18C410.17 181.18 407.86 178.87 407.86 176.01C407.86 173.15 410.17 170.84 413.03 170.84C415.89 170.84 418.2 173.15 418.2 176.01C418.2 178.87 415.89 181.18 413.03 181.18ZM466.857 223.53L467.407 223.75C465.317 234.09 460.697 243.66 449.147 243.66C439.357 243.66 433.307 237.28 433.307 224.3V190.97H426.817V190.09C436.167 190.09 436.937 180.3 436.937 175.02H445.627C445.627 183.49 437.267 189.76 430.667 190.09H454.977V190.97H441.997V225.95C441.997 235.52 444.637 242.89 453.987 241.68C461.247 240.69 464.877 232 466.857 223.53ZM516.782 190.97C512.052 195.81 508.202 201.2 504.132 211.32C504.132 211.32 495.332 233.21 491.372 243C487.412 252.9 482.462 261.15 473.772 261.15C467.832 261.15 463.542 258.4 460.792 253.34L469.372 245.53L470.032 246.08C468.932 252.24 470.142 260.71 476.192 260.05C481.912 259.39 486.422 252.13 490.052 243.99L475.972 210.88C471.352 200.1 469.042 195.37 463.762 190.97V190.09H480.592V190.97C477.842 193.94 478.722 196.91 481.252 203.07L494.342 233.65L503.362 211.21C507.432 201.09 508.752 195.04 503.802 190.97V190.09H516.782V190.97Z" fill="white"/>
</svg>
