<svg width="739" height="262" viewBox="0 0 739 262" fill="none" xmlns="http://www.w3.org/2000/svg">
<path d="M18.1162 12.88C16.3562 13.87 15.5862 15.52 15.5862 19.37V81.74C15.5862 85.59 16.3562 87.24 18.1162 88.23C18.1162 88.45 18.1162 89 18.1162 89H4.47617C4.47617 89 4.47617 88.45 4.47617 88.23C6.12617 87.24 6.89617 85.59 6.89617 81.74V19.37C6.89617 15.52 6.12617 13.87 4.47617 12.88C4.47617 12.66 4.47617 12 4.47617 12H18.1162C18.1162 12 18.1162 12.66 18.1162 12.88ZM81.5973 88.23C81.5973 88.45 81.5973 89 81.5973 89H70.4873V59.52C68.3973 72.28 62.7873 89.66 47.3873 89.66C38.4773 89.66 27.4773 81.96 27.0373 67.88C26.3773 40.71 51.6773 36.09 63.8873 36.09C66.4173 36.09 68.6173 36.53 70.4873 37.08V18.16C70.4873 14.31 70.1573 13.21 67.9573 12.88C67.9573 12.66 67.9573 12 67.9573 12L78.4073 9.69H79.1773V81.74C79.1773 85.59 79.9473 87.24 81.5973 88.23ZM52.3373 87.68C64.6573 85.26 70.4873 62.27 70.4873 53.03V37.63C69.9373 37.52 67.4073 36.64 63.8873 36.64C53.2173 36.86 34.0773 41.48 35.6173 69.53C36.1673 79.1 42.8773 89.44 52.3373 87.68ZM131.799 53.47C138.069 55.12 143.789 61.5 142.909 71.51C142.249 79.32 135.319 89.66 119.699 89.66C104.519 89.66 89.8895 82.18 89.4495 64.03C88.8995 45 106.169 36.75 118.269 36.09C127.619 35.65 140.489 40.16 142.029 53.47C141.039 53.47 134.219 53.47 134.219 53.47H131.799ZM113.319 37.41C105.839 38.84 100.999 45.11 99.0195 52.59H134.109C132.679 43.02 124.099 35.32 113.319 37.41ZM141.919 71.73C143.239 60.29 135.649 53.47 127.289 53.47H98.7995C97.3695 59.3 97.6995 65.79 99.5695 71.07C103.639 82.62 111.889 87.68 123.109 87.24C132.569 86.8 140.819 80.31 141.919 71.73ZM199.737 88.23C199.737 88.45 199.737 89 199.737 89H188.627V73.6C185.767 83.28 179.717 89.66 169.157 89.66C160.137 89.66 151.337 85.37 149.907 77.45C148.037 66.23 154.747 59.63 163.217 56.11C160.357 49.73 163.767 36.09 178.507 36.09C187.637 36.09 197.317 40.93 197.317 54.46V81.74C197.317 85.59 198.087 87.24 199.737 88.23ZM177.517 37.19C167.617 37.19 161.017 46.76 164.317 55.67C170.257 53.47 176.857 52.7 182.027 52.7C184.557 52.7 186.757 53.14 188.627 53.69V52.92C188.627 44.56 185.327 37.19 177.517 37.19ZM171.797 88.23C181.367 87.68 186.427 79.54 188.627 71.62V54.68C188.077 54.46 185.437 53.69 182.027 53.69C170.037 53.69 153.757 59.63 158.487 78.99C159.917 84.93 166.297 88.56 171.797 88.23ZM228.652 36.09C234.372 36.09 241.852 39.72 246.252 43.13L244.052 53.25H243.502C240.092 43.9 233.052 37.08 226.782 37.08C219.302 37.08 215.122 41.26 214.572 45.77C213.032 60.51 250.102 56.55 248.892 74.48C248.232 83.17 240.092 89.66 227.772 89.66C218.862 89.66 212.262 86.69 206.322 82.29L208.632 71.29H209.182C212.922 78.99 221.172 88.12 230.962 88.12C238.882 88.12 244.822 84.05 245.482 79.32C247.572 64.91 209.182 71.29 211.822 49.73C212.702 42.58 216.662 36.09 228.652 36.09ZM320.994 69.53L321.544 69.75C319.454 80.09 314.834 89.66 303.284 89.66C293.494 89.66 287.444 83.28 287.444 70.3V36.97H280.954V36.09C290.304 36.09 291.074 26.3 291.074 21.02H299.764C299.764 29.49 291.404 35.76 284.804 36.09H309.114V36.97H296.134V71.95C296.134 81.52 298.774 88.89 308.124 87.68C315.384 86.69 319.014 78 320.994 69.53ZM374.994 81.74C375.434 85.7 376.424 87.24 378.074 88.23C378.074 88.45 378.074 89 378.074 89H364.544C364.544 89 364.544 88.45 364.544 88.23C366.194 87.24 366.744 85.37 366.414 81.74C365.974 78.11 364.434 59.52 363.884 53.8C363.004 45.55 358.934 36.2 349.474 38.07C337.154 40.49 334.954 63.48 334.954 72.72V81.74C334.954 85.59 335.724 87.24 337.374 88.23C337.374 88.45 337.374 89 337.374 89H323.734C323.734 89 323.734 88.45 323.734 88.23C325.494 87.24 326.264 85.59 326.264 81.74V18.16C326.264 14.31 325.934 13.21 323.734 12.88C323.734 12.66 323.734 12 323.734 12L334.074 9.69H334.954V63.37C336.274 51.05 340.124 36.09 354.424 36.09C363.334 36.09 371.034 42.25 372.354 55.45C373.564 66.12 374.554 77.67 374.994 81.74ZM433.702 88.23C433.702 88.45 433.702 89 433.702 89H422.592V73.6C419.732 83.28 413.682 89.66 403.122 89.66C394.102 89.66 385.302 85.37 383.872 77.45C382.002 66.23 388.712 59.63 397.182 56.11C394.322 49.73 397.732 36.09 412.472 36.09C421.602 36.09 431.282 40.93 431.282 54.46V81.74C431.282 85.59 432.052 87.24 433.702 88.23ZM411.482 37.19C401.582 37.19 394.982 46.76 398.282 55.67C404.222 53.47 410.822 52.7 415.992 52.7C418.522 52.7 420.722 53.14 422.592 53.69V52.92C422.592 44.56 419.292 37.19 411.482 37.19ZM405.762 88.23C415.332 87.68 420.392 79.54 422.592 71.62V54.68C422.042 54.46 419.402 53.69 415.992 53.69C404.002 53.69 387.722 59.63 392.452 78.99C393.882 84.93 400.262 88.56 405.762 88.23ZM479.227 69.53L479.777 69.75C477.687 80.09 473.067 89.66 461.517 89.66C451.727 89.66 445.677 83.28 445.677 70.3V36.97H439.187V36.09C448.537 36.09 449.307 26.3 449.307 21.02H457.997C457.997 29.49 449.637 35.76 443.037 36.09H467.347V36.97H454.367V71.95C454.367 81.52 457.007 88.89 466.357 87.68C473.617 86.69 477.247 78 479.227 69.53ZM543.728 36.97H522.498V81.74C522.498 85.59 523.268 87.24 524.918 88.23C524.918 88.45 524.918 89 524.918 89H511.388C511.388 89 511.388 88.45 511.388 88.23C513.038 87.24 513.808 85.59 513.808 81.74V45.77C513.808 39.83 511.608 36.97 507.318 36.97V36.09H523.488C516.888 35.76 507.758 30.37 507.758 23C507.758 15.52 513.808 9.69 524.698 9.69C529.428 9.69 535.038 10.9 538.998 13.76L537.348 25.31H536.578C533.938 18.6 526.788 7.82 519.418 11.23C515.678 12.88 514.358 18.71 515.348 24.65C516.118 29.38 519.638 36.09 528.548 36.09H543.728V36.97ZM559.248 81.74C559.248 85.59 560.018 87.24 561.668 88.23C561.668 88.45 561.668 89 561.668 89H548.138C548.138 89 548.138 88.45 548.138 88.23C549.788 87.24 550.558 85.59 550.558 81.74V18.16C550.558 14.31 550.228 13.21 548.138 12.88C548.138 12.66 548.138 12 548.138 12L558.478 9.69H559.248V81.74ZM599.218 36.09C613.958 36.09 626.718 45.33 626.718 60.51C626.718 78.11 611.648 89.66 596.908 89.66C582.058 89.66 569.408 80.64 569.408 65.24C569.408 47.09 584.478 36.09 599.218 36.09ZM605.378 87.68C617.918 84.05 621.328 70.3 617.478 56.99C613.628 43.79 603.288 34.44 590.748 38.07C578.208 41.7 574.798 55.45 578.648 68.76C582.498 81.96 592.838 91.42 605.378 87.68ZM696.298 36.09H709.278V36.97C704.878 41.15 701.798 45.88 698.278 54.24L688.488 79.87L692.008 89H683.318C683.318 89 669.788 53.58 669.238 52.15L660.218 81.19L663.518 89H654.828L641.188 56.88C636.568 46.1 634.258 41.37 628.868 36.97V36.09H645.808V36.97C642.948 39.94 643.938 42.91 646.468 49.07L659.668 80.09L668.798 51.05C666.048 44.23 664.068 40.49 659.778 36.97V36.09H676.718V36.97C673.418 40.38 674.848 43.9 677.818 51.93L688.158 78.77L696.298 57.21C700.258 46.98 701.248 40.93 696.298 36.97V36.09Z" fill="#2055CA"/>
<path d="M80.4309 171V119.6H88.3309V171H80.4309ZM79.8309 109.4V99.6H88.7309V109.4H79.8309ZM102.492 171V119.6H110.292V132.9L109.592 132.1C110.792 128.9 112.392 126.3 114.392 124.3C116.392 122.233 118.758 120.733 121.492 119.8C124.292 118.8 127.358 118.3 130.692 118.3C133.892 118.3 136.825 118.767 139.492 119.7C142.158 120.633 144.458 122 146.392 123.8C148.325 125.533 149.792 127.767 150.792 130.5C151.858 133.233 152.392 136.4 152.392 140V171H144.592V141.2C144.592 137.667 143.958 134.7 142.692 132.3C141.492 129.833 139.692 127.967 137.292 126.7C134.958 125.367 132.058 124.7 128.592 124.7C125.125 124.7 121.992 125.467 119.192 127C116.458 128.533 114.292 130.633 112.692 133.3C111.092 135.967 110.292 139.033 110.292 142.5V171H102.492ZM184.982 171C180.782 171 177.416 169.9 174.882 167.7C172.416 165.5 171.182 162.4 171.182 158.4V105.7H178.882V157.2C178.882 159.733 179.616 161.633 181.082 162.9C182.549 164.167 184.382 164.8 186.582 164.8H193.882V171H184.982ZM160.182 125.8V119.6H172.582V125.8H160.182ZM177.482 125.8V119.6H193.882V125.8H177.482ZM227.778 172.3C222.244 172.3 217.411 171.167 213.278 168.9C209.144 166.633 205.944 163.467 203.678 159.4C201.411 155.333 200.278 150.633 200.278 145.3C200.278 142.1 200.678 139.1 201.478 136.3C202.344 133.5 203.544 131 205.078 128.8C206.678 126.6 208.611 124.733 210.878 123.2C213.144 121.6 215.678 120.4 218.478 119.6C221.344 118.733 224.444 118.3 227.778 118.3C233.444 118.3 238.344 119.433 242.478 121.7C246.611 123.967 249.778 127.133 251.978 131.2C254.244 135.2 255.378 139.9 255.378 145.3C255.378 148.5 254.944 151.5 254.078 154.3C253.278 157.1 252.078 159.6 250.478 161.8C248.944 164 247.044 165.9 244.778 167.5C242.578 169.033 240.044 170.2 237.178 171C234.311 171.867 231.178 172.3 227.778 172.3ZM227.778 166C230.444 166 232.811 165.667 234.878 165C236.944 164.267 238.744 163.267 240.278 162C241.811 160.733 243.111 159.233 244.178 157.5C245.244 155.767 246.011 153.867 246.478 151.8C247.011 149.733 247.278 147.533 247.278 145.2C247.278 141.267 246.544 137.767 245.078 134.7C243.678 131.633 241.511 129.2 238.578 127.4C235.711 125.533 232.111 124.6 227.778 124.6C225.178 124.6 222.811 124.967 220.678 125.7C218.611 126.367 216.811 127.333 215.278 128.6C213.811 129.8 212.544 131.233 211.478 132.9C210.411 134.567 209.611 136.433 209.078 138.5C208.611 140.567 208.378 142.8 208.378 145.2C208.378 149.067 209.078 152.567 210.478 155.7C211.944 158.833 214.111 161.333 216.978 163.2C219.911 165.067 223.511 166 227.778 166ZM294.493 171V119.6H302.393V171H294.493ZM293.893 109.4V99.6H302.793V109.4H293.893ZM316.554 171V119.6H324.354V132.9L323.654 132.1C324.854 128.9 326.454 126.3 328.454 124.3C330.454 122.233 332.821 120.733 335.554 119.8C338.354 118.8 341.421 118.3 344.754 118.3C347.954 118.3 350.888 118.767 353.554 119.7C356.221 120.633 358.521 122 360.454 123.8C362.388 125.533 363.854 127.767 364.854 130.5C365.921 133.233 366.454 136.4 366.454 140V171H358.654V141.2C358.654 137.667 358.021 134.7 356.754 132.3C355.554 129.833 353.754 127.967 351.354 126.7C349.021 125.367 346.121 124.7 342.654 124.7C339.188 124.7 336.054 125.467 333.254 127C330.521 128.533 328.354 130.633 326.754 133.3C325.154 135.967 324.354 139.033 324.354 142.5V171H316.554ZM379.936 171V99.6H387.736V150.2L385.236 149L416.436 119.6H426.436L404.036 141C405.969 141.333 407.569 141.933 408.836 142.8C410.102 143.667 411.502 145.2 413.036 147.4L430.836 171H421.236L405.436 149.7C404.036 147.7 402.469 146.633 400.736 146.5C399.002 146.367 397.269 147.133 395.536 148.8L385.136 158.4L387.736 152.4V171H379.936ZM459.707 172.3C454.107 172.3 449.273 171.167 445.207 168.9C441.14 166.633 437.973 163.467 435.707 159.4C433.507 155.333 432.407 150.633 432.407 145.3C432.407 142.033 432.807 139.033 433.607 136.3C434.473 133.5 435.673 131 437.207 128.8C438.807 126.6 440.707 124.7 442.907 123.1C445.173 121.5 447.707 120.3 450.507 119.5C453.373 118.7 456.473 118.3 459.807 118.3C463.407 118.3 466.807 118.833 470.007 119.9C473.273 120.9 476.107 122.533 478.507 124.8C480.907 127.067 482.74 130.033 484.007 133.7C485.273 137.367 485.74 141.867 485.407 147.2H437.007V141.3H477.707C477.507 138.5 476.973 136.1 476.107 134.1C475.24 132.033 474.04 130.3 472.507 128.9C470.973 127.433 469.14 126.367 467.007 125.7C464.873 124.967 462.473 124.6 459.807 124.6C457.14 124.6 454.74 124.933 452.607 125.6C450.54 126.267 448.74 127.233 447.207 128.5C445.673 129.767 444.407 131.267 443.407 133C442.407 134.733 441.64 136.633 441.107 138.7C440.64 140.767 440.407 142.967 440.407 145.3C440.407 149.1 441.107 152.6 442.507 155.8C443.907 158.933 446.04 161.433 448.907 163.3C451.773 165.1 455.407 166 459.807 166C464.14 166 467.707 165.267 470.507 163.8C473.307 162.267 475.34 160.133 476.607 157.4H484.707C483.84 160.2 482.307 162.733 480.107 165C477.973 167.2 475.207 168.967 471.807 170.3C468.407 171.633 464.373 172.3 459.707 172.3ZM519.032 172.3C514.232 172.3 509.932 171.2 506.132 169C502.332 166.8 499.332 163.667 497.132 159.6C494.932 155.533 493.832 150.7 493.832 145.1C493.832 141.833 494.232 138.8 495.032 136C495.832 133.133 496.999 130.633 498.532 128.5C500.066 126.3 501.866 124.467 503.932 123C505.999 121.467 508.299 120.3 510.832 119.5C513.432 118.7 516.166 118.3 519.032 118.3C522.032 118.3 524.932 118.767 527.732 119.7C530.532 120.567 533.066 121.967 535.332 123.9C537.666 125.833 539.499 128.367 540.832 131.5L540.032 132.4V99.6H547.732V171H540.032V158.1L540.832 159.1C539.499 162.1 537.666 164.6 535.332 166.6C533.066 168.533 530.532 169.967 527.732 170.9C524.932 171.833 522.032 172.3 519.032 172.3ZM520.632 166C523.032 166 525.266 165.667 527.332 165C529.399 164.267 531.199 163.3 532.732 162.1C534.332 160.833 535.699 159.333 536.832 157.6C537.966 155.867 538.832 153.967 539.432 151.9C540.032 149.767 540.332 147.533 540.332 145.2C540.332 141.267 539.499 137.767 537.832 134.7C536.232 131.567 533.966 129.1 531.032 127.3C528.166 125.5 524.699 124.6 520.632 124.6C518.299 124.6 516.132 124.967 514.132 125.7C512.199 126.367 510.466 127.3 508.932 128.5C507.466 129.7 506.199 131.167 505.132 132.9C504.066 134.567 503.266 136.433 502.732 138.5C502.266 140.567 502.032 142.767 502.032 145.1C502.032 149.033 502.732 152.6 504.132 155.8C505.599 158.933 507.732 161.433 510.532 163.3C513.332 165.1 516.699 166 520.632 166Z" fill="#2055CA"/>
<path d="M317.687 225.07C321.757 236.62 331.107 242.78 342.217 241.68C353.107 240.58 359.047 230.9 360.807 227.82L361.467 228.15C358.057 234.31 351.567 242.89 338.477 243.66C323.297 244.43 308.117 236.18 307.677 218.03C307.127 199 324.397 190.09 336.497 190.09C342.767 190.09 351.567 192.95 357.287 195.92L355.637 205.05H354.977C352.337 198.45 341.887 188.99 331.547 191.41C318.017 194.49 313.067 211.87 317.687 225.07ZM379.156 235.74C379.156 239.59 379.926 241.24 381.576 242.23C381.576 242.45 381.576 243 381.576 243H368.046C368.046 243 368.046 242.45 368.046 242.23C369.696 241.24 370.466 239.59 370.466 235.74V172.16C370.466 168.31 370.136 167.21 368.046 166.88C368.046 166.66 368.046 166 368.046 166L378.386 163.69H379.156V235.74ZM438.375 242.23C438.375 242.45 438.375 243 438.375 243H427.265V227.6C424.405 237.28 418.355 243.66 407.795 243.66C398.775 243.66 389.975 239.37 388.545 231.45C386.675 220.23 393.385 213.63 401.855 210.11C398.995 203.73 402.405 190.09 417.145 190.09C426.275 190.09 435.955 194.93 435.955 208.46V235.74C435.955 239.59 436.725 241.24 438.375 242.23ZM416.155 191.19C406.255 191.19 399.655 200.76 402.955 209.67C408.895 207.47 415.495 206.7 420.665 206.7C423.195 206.7 425.395 207.14 427.265 207.69V206.92C427.265 198.56 423.965 191.19 416.155 191.19ZM410.435 242.23C420.005 241.68 425.065 233.54 427.265 225.62V208.68C426.715 208.46 424.075 207.69 420.665 207.69C408.675 207.69 392.395 213.63 397.125 232.99C398.555 238.93 404.935 242.56 410.435 242.23ZM473.094 190.09C479.034 190.09 482.444 192.18 486.184 196.58L479.474 206.04L478.704 205.6C478.484 199.33 475.404 191.19 469.464 192.07C458.684 193.72 457.254 222.1 457.254 231.45V235.74C457.254 239.59 458.024 241.24 459.674 242.23C459.674 242.45 459.674 243 459.674 243H446.034C446.034 243 446.034 242.45 446.034 242.23C447.794 241.24 448.564 239.59 448.564 235.74V198.56C448.564 194.71 448.234 193.61 446.034 193.28C446.034 193.06 446.034 192.51 446.034 192.51L456.374 190.09H457.254V219.57C458.354 206.26 461.434 190.09 473.094 190.09ZM500.65 235.74C500.65 239.59 501.42 241.24 503.18 242.23C503.18 242.45 503.18 243 503.18 243H489.54C489.54 243 489.54 242.45 489.54 242.23C491.19 241.24 491.96 239.59 491.96 235.74V198.56C491.96 194.71 491.63 193.61 489.54 193.28C489.54 193.06 489.54 192.51 489.54 192.51L499.88 190.09H500.65V235.74ZM496.03 181.18C493.17 181.18 490.86 178.87 490.86 176.01C490.86 173.15 493.17 170.84 496.03 170.84C498.89 170.84 501.2 173.15 501.2 176.01C501.2 178.87 498.89 181.18 496.03 181.18ZM549.857 223.53L550.407 223.75C548.317 234.09 543.697 243.66 532.147 243.66C522.357 243.66 516.307 237.28 516.307 224.3V190.97H509.817V190.09C519.167 190.09 519.937 180.3 519.937 175.02H528.627C528.627 183.49 520.267 189.76 513.667 190.09H537.977V190.97H524.997V225.95C524.997 235.52 527.637 242.89 536.987 241.68C544.247 240.69 547.877 232 549.857 223.53ZM599.782 190.97C595.052 195.81 591.202 201.2 587.132 211.32C587.132 211.32 578.332 233.21 574.372 243C570.412 252.9 565.462 261.15 556.772 261.15C550.832 261.15 546.542 258.4 543.792 253.34L552.372 245.53L553.032 246.08C551.932 252.24 553.142 260.71 559.192 260.05C564.912 259.39 569.422 252.13 573.052 243.99L558.972 210.88C554.352 200.1 552.042 195.37 546.762 190.97V190.09H563.592V190.97C560.842 193.94 561.722 196.91 564.252 203.07L577.342 233.65L586.362 211.21C590.432 201.09 591.752 195.04 586.802 190.97V190.09H599.782V190.97Z" fill="#2055CA"/>
</svg>
