<svg width="358" height="120" viewBox="0 0 358 120" fill="none" xmlns="http://www.w3.org/2000/svg">
<path d="M6.92642 1.62158C6.03269 2.12483 5.64169 2.96358 5.64169 4.92065V36.6254C5.64169 38.5825 6.03269 39.4212 6.92642 39.9245C6.92642 40.0363 6.92642 40.3159 6.92642 40.3159H0C0 40.3159 0 40.0363 0 39.9245C0.837874 39.4212 1.22888 38.5825 1.22888 36.6254V4.92065C1.22888 2.96358 0.837874 2.12483 0 1.62158C0 1.50975 0 1.17425 0 1.17425H6.92642C6.92642 1.17425 6.92642 1.50975 6.92642 1.62158ZM39.1622 39.9245C39.1622 40.0363 39.1622 40.3159 39.1622 40.3159H33.5205V25.3302C32.4593 31.8166 29.6105 40.6514 21.7903 40.6514C17.2658 40.6514 11.68 36.7372 11.4566 29.5799C11.1214 15.7685 23.9688 13.42 30.1691 13.42C31.4538 13.42 32.571 13.6437 33.5205 13.9232V4.30557C33.5205 2.3485 33.353 1.78933 32.2358 1.62158C32.2358 1.50975 32.2358 1.17425 32.2358 1.17425L37.5423 0H37.9334V36.6254C37.9334 38.5825 38.3243 39.4212 39.1622 39.9245ZM24.304 39.6449C30.5601 38.4147 33.5205 26.7282 33.5205 22.0312V14.2028C33.2413 14.1469 31.9565 13.6996 30.1691 13.6996C24.7508 13.8114 15.0315 16.1599 15.8135 30.4187C16.0928 35.2834 19.5001 40.5396 24.304 39.6449ZM64.6548 22.2548C67.8387 23.0936 70.7434 26.3367 70.2965 31.4252C69.9613 35.3952 66.4423 40.6514 58.5104 40.6514C50.802 40.6514 43.373 36.8491 43.1496 27.6228C42.8703 17.9492 51.6399 13.7555 57.7843 13.42C62.5322 13.1963 69.0676 15.4889 69.8496 22.2548C69.3469 22.2548 65.8837 22.2548 65.8837 22.2548H64.6548ZM55.2706 14.091C51.4723 14.8179 49.0147 18.0052 48.0092 21.8075H65.8278C65.1017 16.9427 60.7447 13.0286 55.2706 14.091ZM69.7938 31.537C70.4641 25.7217 66.6098 22.2548 62.3646 22.2548H47.8975C47.1714 25.2184 47.3389 28.5175 48.2885 31.2015C50.3553 37.0727 54.5445 39.6449 60.242 39.4212C65.0458 39.1976 69.2352 35.8985 69.7938 31.537ZM99.1538 39.9245C99.1538 40.0363 99.1538 40.3159 99.1538 40.3159H93.5122V32.4876C92.0598 37.4082 88.9876 40.6514 83.6253 40.6514C79.0449 40.6514 74.5762 38.4707 73.8501 34.4447C72.9005 28.7412 76.3078 25.3862 80.6089 23.5968C79.1566 20.3537 80.8882 13.42 88.3732 13.42C93.0094 13.42 97.9249 15.8803 97.9249 22.7581V36.6254C97.9249 38.5825 98.316 39.4212 99.1538 39.9245ZM87.8705 13.9792C82.8432 13.9792 79.4918 18.8439 81.1675 23.3732C84.1838 22.2548 87.5353 21.8634 90.1607 21.8634C91.4454 21.8634 92.5626 22.0871 93.5122 22.3667V21.9752C93.5122 17.7256 91.8364 13.9792 87.8705 13.9792ZM84.9659 39.9245C89.8255 39.6449 92.395 35.5071 93.5122 31.4811V22.8699C93.2329 22.7581 91.8923 22.3667 90.1607 22.3667C84.0721 22.3667 75.8051 25.3862 78.207 35.2275C78.9332 38.247 82.1729 40.0922 84.9659 39.9245ZM113.837 13.42C116.742 13.42 120.54 15.2652 122.774 16.9987L121.657 22.143H121.378C119.646 17.3901 116.071 13.9232 112.887 13.9232C109.089 13.9232 106.966 16.0481 106.687 18.3407C105.905 25.8335 124.729 23.8205 124.115 32.9349C123.78 37.3523 119.646 40.6514 113.39 40.6514C108.866 40.6514 105.514 39.1417 102.498 36.905L103.671 31.3133H103.95C105.849 35.2275 110.039 39.8686 115.01 39.8686C119.032 39.8686 122.048 37.7997 122.383 35.3952C123.445 28.0702 103.95 31.3133 105.291 20.3537C105.737 16.7191 107.748 13.42 113.837 13.42ZM160.728 30.4187L161.008 30.5305C159.946 35.7867 157.6 40.6514 151.735 40.6514C146.764 40.6514 143.692 37.4082 143.692 30.8101V13.8673H140.396V13.42C145.144 13.42 145.535 8.4434 145.535 5.7594H149.948C149.948 10.065 145.702 13.2522 142.351 13.42H154.696V13.8673H148.104V31.6488C148.104 36.5136 149.445 40.26 154.193 39.6449C157.88 39.1417 159.723 34.7242 160.728 30.4187ZM188.15 36.6254C188.373 38.6384 188.876 39.4212 189.714 39.9245C189.714 40.0363 189.714 40.3159 189.714 40.3159H182.843C182.843 40.3159 182.843 40.0363 182.843 39.9245C183.681 39.4212 183.96 38.4707 183.793 36.6254C183.569 34.7802 182.787 25.3302 182.508 22.4226C182.061 18.2288 179.994 13.4759 175.19 14.4265C168.934 15.6567 167.817 27.3432 167.817 32.0402V36.6254C167.817 38.5825 168.208 39.4212 169.046 39.9245C169.046 40.0363 169.046 40.3159 169.046 40.3159H162.12C162.12 40.3159 162.12 40.0363 162.12 39.9245C163.013 39.4212 163.404 38.5825 163.404 36.6254V4.30557C163.404 2.3485 163.237 1.78933 162.12 1.62158C162.12 1.50975 162.12 1.17425 162.12 1.17425L167.37 0H167.817V27.2873C168.488 21.0247 170.443 13.42 177.704 13.42C182.229 13.42 186.139 16.5513 186.809 23.2613C187.423 28.6852 187.926 34.5565 188.15 36.6254ZM217.962 39.9245C217.962 40.0363 217.962 40.3159 217.962 40.3159H212.32V32.4876C210.868 37.4082 207.795 40.6514 202.433 40.6514C197.853 40.6514 193.384 38.4707 192.658 34.4447C191.708 28.7412 195.116 25.3862 199.417 23.5968C197.964 20.3537 199.696 13.42 207.181 13.42C211.817 13.42 216.733 15.8803 216.733 22.7581V36.6254C216.733 38.5825 217.124 39.4212 217.962 39.9245ZM206.678 13.9792C201.651 13.9792 198.3 18.8439 199.975 23.3732C202.992 22.2548 206.343 21.8634 208.968 21.8634C210.253 21.8634 211.37 22.0871 212.32 22.3667V21.9752C212.32 17.7256 210.644 13.9792 206.678 13.9792ZM203.774 39.9245C208.633 39.6449 211.203 35.5071 212.32 31.4811V22.8699C212.041 22.7581 210.7 22.3667 208.968 22.3667C202.88 22.3667 194.613 25.3862 197.015 35.2275C197.741 38.247 200.981 40.0922 203.774 39.9245ZM241.079 30.4187L241.359 30.5305C240.297 35.7867 237.951 40.6514 232.086 40.6514C227.115 40.6514 224.043 37.4082 224.043 30.8101V13.8673H220.747V13.42C225.495 13.42 225.886 8.4434 225.886 5.7594H230.299C230.299 10.065 226.053 13.2522 222.702 13.42H235.047V13.8673H228.455V31.6488C228.455 36.5136 229.796 40.26 234.544 39.6449C238.23 39.1417 240.074 34.7242 241.079 30.4187ZM273.833 13.8673H263.052V36.6254C263.052 38.5825 263.443 39.4212 264.281 39.9245C264.281 40.0363 264.281 40.3159 264.281 40.3159H257.411C257.411 40.3159 257.411 40.0363 257.411 39.9245C258.249 39.4212 258.64 38.5825 258.64 36.6254V18.3407C258.64 15.3212 257.522 13.8673 255.344 13.8673V13.42H263.555C260.204 13.2522 255.567 10.5123 255.567 6.7659C255.567 2.96358 258.64 0 264.169 0C266.571 0 269.42 0.615083 271.431 2.06892L270.593 7.94015H270.202C268.862 4.52923 265.231 -0.950584 261.488 0.782833C259.589 1.62158 258.919 4.58515 259.422 7.60465C259.813 10.0091 261.6 13.42 266.125 13.42H273.833V13.8673ZM281.714 36.6254C281.714 38.5825 282.105 39.4212 282.943 39.9245C282.943 40.0363 282.943 40.3159 282.943 40.3159H276.072C276.072 40.3159 276.072 40.0363 276.072 39.9245C276.91 39.4212 277.301 38.5825 277.301 36.6254V4.30557C277.301 2.3485 277.134 1.78933 276.072 1.62158C276.072 1.50975 276.072 1.17425 276.072 1.17425L281.323 0H281.714V36.6254ZM302.011 13.42C309.496 13.42 315.975 18.117 315.975 25.8335C315.975 34.7802 308.323 40.6514 300.838 40.6514C293.297 40.6514 286.873 36.0662 286.873 28.2379C286.873 19.0117 294.526 13.42 302.011 13.42ZM305.139 39.6449C311.507 37.7997 313.238 30.8101 311.283 24.0442C309.328 17.3342 304.078 12.5812 297.71 14.4265C291.342 16.2717 289.61 23.2613 291.565 30.0272C293.52 36.7372 298.771 41.5461 305.139 39.6449ZM351.308 13.42H357.899V13.8673C355.665 15.9922 354.101 18.3966 352.314 22.6462L347.342 35.6748L349.13 40.3159H344.717C344.717 40.3159 337.846 22.3107 337.567 21.5838L332.987 36.3458L334.662 40.3159H330.25L323.323 23.9882C320.977 18.5084 319.804 16.104 317.067 13.8673V13.42H325.669V13.8673C324.217 15.3771 324.72 16.8868 326.004 20.0182L332.707 35.7867L337.344 21.0247C335.947 17.5578 334.942 15.6567 332.763 13.8673V13.42H341.365V13.8673C339.69 15.6007 340.416 17.3901 341.924 21.472L347.175 35.1157L351.308 24.156C353.319 18.9557 353.822 15.8803 351.308 13.8673V13.42Z" fill="#2055CA"/>
<path d="M38.5699 79.9659V53.8376H42.5815V79.9659H38.5699ZM38.2652 48.6526V43.6709H42.7846V48.6526H38.2652ZM49.7724 79.9659V53.8376H53.7335V60.5985L53.378 60.1918C53.9874 58.5651 54.7999 57.2435 55.8155 56.2268C56.8311 55.1761 58.0325 54.4136 59.4209 53.9393C60.8427 53.431 62.3996 53.1768 64.0926 53.1768C65.7176 53.1768 67.207 53.4142 68.5613 53.8884C69.9151 54.3627 71.083 55.0576 72.0651 55.9726C73.0467 56.8536 73.7916 57.9892 74.2994 59.3784C74.8408 60.7677 75.1119 62.3776 75.1119 64.2076V79.9659H71.1511V64.8176C71.1511 63.0217 70.8291 61.5135 70.1863 60.2935C69.5769 59.0394 68.6628 58.0908 67.4441 57.4468C66.2589 56.7692 64.7863 56.4301 63.0263 56.4301C61.2657 56.4301 59.6748 56.82 58.2529 57.5993C56.8646 58.3786 55.7647 59.4461 54.9522 60.8018C54.1397 62.1575 53.7335 63.7161 53.7335 65.4784V79.9659H49.7724ZM91.6612 79.9659C89.5284 79.9659 87.8192 79.4068 86.5324 78.2885C85.2801 77.1701 84.6535 75.5943 84.6535 73.5609V46.7717H88.5636V72.951C88.5636 74.2386 88.9363 75.2044 89.6808 75.8484C90.4257 76.4925 91.3565 76.8143 92.4737 76.8143H96.1806V79.9659H91.6612ZM79.0677 56.9893V53.8376H85.3644V56.9893H79.0677ZM87.8527 56.9893V53.8376H96.1806V56.9893H87.8527ZM113.393 80.6268C110.583 80.6268 108.129 80.0508 106.03 78.8984C103.931 77.7461 102.306 76.1367 101.155 74.0693C100.004 72.0019 99.4285 69.6127 99.4285 66.9018C99.4285 65.2751 99.6316 63.7501 100.038 62.3268C100.478 60.9035 101.087 59.6326 101.866 58.5143C102.678 57.396 103.66 56.4469 104.811 55.6676C105.962 54.8543 107.249 54.2443 108.67 53.8376C110.126 53.3969 111.7 53.1768 113.393 53.1768C116.27 53.1768 118.758 53.7527 120.858 54.9051C122.956 56.0575 124.565 57.6669 125.682 59.7343C126.833 61.7676 127.408 64.1568 127.408 66.9018C127.408 68.5284 127.188 70.0534 126.748 71.4768C126.342 72.9001 125.733 74.1709 124.92 75.2893C124.141 76.4076 123.176 77.3734 122.026 78.1868C120.909 78.9661 119.622 79.5593 118.166 79.9659C116.711 80.4067 115.12 80.6268 113.393 80.6268ZM113.393 77.4243C114.747 77.4243 115.949 77.255 116.998 76.9159C118.048 76.5433 118.962 76.035 119.741 75.3909C120.519 74.7469 121.179 73.9844 121.721 73.1034C122.262 72.2225 122.652 71.2567 122.889 70.2059C123.16 69.1552 123.295 68.0369 123.295 66.851C123.295 64.8517 122.922 63.0725 122.178 61.5134C121.467 59.9544 120.367 58.7176 118.877 57.8026C117.421 56.8536 115.593 56.3793 113.393 56.3793C112.073 56.3793 110.871 56.5658 109.788 56.9384C108.738 57.2775 107.824 57.7686 107.046 58.4126C106.301 59.0226 105.657 59.7511 105.116 60.5985C104.574 61.4458 104.168 62.3944 103.897 63.4451C103.66 64.4958 103.542 65.631 103.542 66.851C103.542 68.8167 103.897 70.5958 104.608 72.1885C105.353 73.7811 106.453 75.0519 107.909 76.001C109.398 76.95 111.226 77.4243 113.393 77.4243ZM147.271 79.9659V53.8376H151.283V79.9659H147.271ZM146.966 48.6526V43.6709H151.486V48.6526H146.966ZM158.474 79.9659V53.8376H162.434V60.5985L162.079 60.1918C162.688 58.5651 163.501 57.2435 164.516 56.2268C165.532 55.1761 166.734 54.4136 168.122 53.9393C169.544 53.431 171.101 53.1768 172.794 53.1768C174.419 53.1768 175.908 53.4142 177.262 53.8884C178.617 54.3627 179.785 55.0576 180.766 55.9726C181.748 56.8536 182.493 57.9892 183 59.3784C183.542 60.7677 183.813 62.3776 183.813 64.2076V79.9659H179.852V64.8176C179.852 63.0217 179.531 61.5135 178.887 60.2935C178.278 59.0394 177.364 58.0908 176.145 57.4468C174.96 56.7692 173.488 56.4301 171.727 56.4301C169.967 56.4301 168.376 56.82 166.954 57.5993C165.566 58.3786 164.466 59.4461 163.653 60.8018C162.841 62.1575 162.434 63.7161 162.434 65.4784V79.9659H158.474ZM190.659 79.9659V43.6709H194.619V69.3926L193.35 68.7826L209.193 53.8376H214.271L202.897 64.7159C203.879 64.8852 204.691 65.1902 205.334 65.6309C205.977 66.0717 206.688 66.851 207.467 67.9693L216.506 79.9659H211.631L203.608 69.1385C202.897 68.1218 202.101 67.5794 201.221 67.5118C200.341 67.4442 199.461 67.8336 198.58 68.6809L193.299 73.5609L194.619 70.5109V79.9659H190.659ZM231.166 80.6268C228.323 80.6268 225.869 80.0508 223.803 78.8984C221.739 77.7461 220.13 76.1367 218.979 74.0693C217.862 72.0019 217.303 69.6127 217.303 66.9018C217.303 65.2411 217.507 63.7161 217.913 62.3268C218.353 60.9035 218.962 59.6326 219.741 58.5143C220.553 57.396 221.518 56.4301 222.635 55.6168C223.787 54.8034 225.073 54.1934 226.495 53.7868C227.951 53.3801 229.525 53.1768 231.217 53.1768C233.045 53.1768 234.772 53.4477 236.397 53.9901C238.056 54.4985 239.494 55.3286 240.713 56.481C241.932 57.6333 242.863 59.1411 243.506 61.0051C244.149 62.8692 244.387 65.1567 244.217 67.8676H219.639V64.8684H240.307C240.205 63.4451 239.935 62.2251 239.494 61.2084C239.055 60.1577 238.445 59.2768 237.666 58.5651C236.888 57.8194 235.957 57.2775 234.873 56.9384C233.79 56.5658 232.571 56.3793 231.217 56.3793C229.863 56.3793 228.645 56.5486 227.561 56.8876C226.512 57.2267 225.598 57.7177 224.819 58.3618C224.04 59.0058 223.397 59.7683 222.889 60.6493C222.381 61.5302 221.992 62.4961 221.721 63.5468C221.485 64.5975 221.366 65.7158 221.366 66.9018C221.366 68.8334 221.721 70.6126 222.432 72.2393C223.143 73.8319 224.227 75.1027 225.682 76.0518C227.138 76.9668 228.983 77.4243 231.217 77.4243C233.418 77.4243 235.229 77.0517 236.651 76.3059C238.073 75.5267 239.105 74.4419 239.748 73.0526H243.861C243.422 74.4759 242.643 75.7636 241.526 76.9159C240.442 78.0343 239.037 78.9325 237.311 79.6101C235.584 80.2877 233.536 80.6268 231.166 80.6268ZM261.292 80.6268C258.855 80.6268 256.671 80.0676 254.742 78.9493C252.812 77.8309 251.289 76.2383 250.171 74.1709C249.054 72.1036 248.496 69.6468 248.496 66.8001C248.496 65.1394 248.699 63.5976 249.105 62.1743C249.511 60.7169 250.104 59.4461 250.882 58.3618C251.661 57.2434 252.575 56.3117 253.624 55.5659C254.674 54.7867 255.842 54.1934 257.128 53.7868C258.449 53.3801 259.837 53.1768 261.292 53.1768C262.816 53.1768 264.288 53.4142 265.71 53.8884C267.132 54.3292 268.419 55.0408 269.569 56.0235C270.755 57.0061 271.685 58.2942 272.362 59.8868L271.956 60.3443V43.6709H275.866V79.9659H271.956V73.4084L272.362 73.9168C271.685 75.4418 270.755 76.7126 269.569 77.7293C268.419 78.7119 267.132 79.4408 265.71 79.9151C264.288 80.3894 262.816 80.6268 261.292 80.6268ZM262.105 77.4243C263.323 77.4243 264.458 77.255 265.507 76.9159C266.557 76.5433 267.471 76.0518 268.249 75.4418C269.062 74.7977 269.756 74.0352 270.331 73.1543C270.907 72.2733 271.347 71.3075 271.651 70.2568C271.956 69.1725 272.108 68.0369 272.108 66.851C272.108 64.8517 271.685 63.0725 270.839 61.5134C270.026 59.9208 268.876 58.6668 267.386 57.7518C265.931 56.8368 264.17 56.3793 262.105 56.3793C260.92 56.3793 259.82 56.5658 258.804 56.9384C257.822 57.2775 256.942 57.7518 256.163 58.3618C255.419 58.9718 254.776 59.7175 254.234 60.5985C253.692 61.4458 253.286 62.3944 253.015 63.4451C252.778 64.4958 252.66 65.6142 252.66 66.8001C252.66 68.7994 253.015 70.6126 253.726 72.2393C254.471 73.8319 255.554 75.1027 256.976 76.0518C258.398 76.9668 260.108 77.4243 262.105 77.4243Z" fill="#2055CA"/>
<path d="M112.304 110.502C114.371 116.373 119.119 119.504 124.76 118.945C130.29 118.386 133.307 113.465 134.2 111.9L134.535 112.067C132.804 115.199 129.508 119.56 122.861 119.952C115.153 120.343 107.444 116.149 107.221 106.923C106.941 97.2495 115.711 92.7202 121.856 92.7202C125.039 92.7202 129.508 94.1741 132.413 95.6838L131.575 100.325H131.24C129.899 96.9699 124.593 92.1611 119.342 93.3912C112.471 94.9569 109.958 103.792 112.304 110.502ZM151.617 92.7202C154.634 92.7202 156.365 93.7826 158.264 96.0193L154.857 100.828L154.466 100.604C154.354 97.4172 152.79 93.2794 149.774 93.7267C144.3 94.5655 143.574 108.992 143.574 113.745V115.926C143.574 117.883 143.965 118.721 144.803 119.225C144.803 119.337 144.803 119.616 144.803 119.616H137.876C137.876 119.616 137.876 119.337 137.876 119.225C138.77 118.721 139.161 117.883 139.161 115.926V97.0258C139.161 95.0687 138.993 94.5096 137.876 94.3418C137.876 94.23 137.876 93.9504 137.876 93.9504L143.127 92.7202H143.574V107.706C144.132 100.94 145.696 92.7202 151.617 92.7202ZM180.984 101.555C184.168 102.394 187.073 105.637 186.626 110.725C186.29 114.695 182.771 119.952 174.84 119.952C167.131 119.952 159.702 116.149 159.479 106.923C159.199 97.2495 167.969 93.0557 174.113 92.7202C178.861 92.4966 185.397 94.7891 186.179 101.555C185.676 101.555 182.213 101.555 182.213 101.555H180.984ZM171.6 93.3912C167.801 94.1181 165.344 97.3054 164.338 101.108H182.157C181.431 96.243 177.074 92.3288 171.6 93.3912ZM186.123 110.837C186.793 105.022 182.939 101.555 178.694 101.555H164.227C163.5 104.519 163.668 107.818 164.618 110.502C166.684 116.373 170.874 118.945 176.571 118.721C181.375 118.498 185.564 115.199 186.123 110.837ZM215.483 119.225C215.483 119.337 215.483 119.616 215.483 119.616H209.841V111.788C208.389 116.708 205.317 119.952 199.954 119.952C195.374 119.952 190.905 117.771 190.179 113.745C189.23 108.041 192.637 104.686 196.938 102.897C195.486 99.6539 197.217 92.7202 204.702 92.7202C209.339 92.7202 214.254 95.1806 214.254 102.058V115.926C214.254 117.883 214.645 118.721 215.483 119.225ZM204.2 93.2794C199.172 93.2794 195.821 98.1441 197.497 102.673C200.513 101.555 203.864 101.164 206.49 101.164C207.775 101.164 208.892 101.387 209.841 101.667V101.275C209.841 97.0258 208.166 93.2794 204.2 93.2794ZM201.295 119.225C206.155 118.945 208.724 114.807 209.841 110.781V102.17C209.562 102.058 208.221 101.667 206.49 101.667C200.401 101.667 192.134 104.686 194.536 114.528C195.262 117.547 198.502 119.392 201.295 119.225ZM238.601 109.719L238.88 109.831C237.819 115.087 235.473 119.952 229.607 119.952C224.636 119.952 221.564 116.708 221.564 110.11V93.1676H218.268V92.7202C223.016 92.7202 223.407 87.7436 223.407 85.0596H227.82C227.82 89.3652 223.575 92.5525 220.223 92.7202H232.568V93.1676H225.977V110.949C225.977 115.814 227.317 119.56 232.065 118.945C235.752 118.442 237.595 114.024 238.601 109.719ZM245.088 115.926C245.088 117.883 245.479 118.721 246.373 119.225C246.373 119.337 246.373 119.616 246.373 119.616H239.446C239.446 119.616 239.446 119.337 239.446 119.225C240.284 118.721 240.675 117.883 240.675 115.926V97.0258C240.675 95.0687 240.507 94.5096 239.446 94.3418C239.446 94.23 239.446 93.9504 239.446 93.9504L244.697 92.7202H245.088V115.926ZM242.742 88.191C241.289 88.191 240.116 87.0167 240.116 85.5629C240.116 84.1091 241.289 82.9348 242.742 82.9348C244.194 82.9348 245.367 84.1091 245.367 85.5629C245.367 87.0167 244.194 88.191 242.742 88.191ZM265.439 92.7202C272.924 92.7202 279.403 97.4172 279.403 105.134C279.403 114.08 271.751 119.952 264.266 119.952C256.725 119.952 250.301 115.366 250.301 107.538C250.301 98.3119 257.954 92.7202 265.439 92.7202ZM268.567 118.945C274.935 117.1 276.666 110.11 274.711 103.344C272.756 96.6344 267.506 91.8815 261.138 93.7267C254.77 95.572 253.038 102.562 254.993 109.327C256.949 116.037 262.199 120.846 268.567 118.945ZM309.333 115.926C309.557 117.939 310.059 118.721 310.897 119.225C310.897 119.337 310.897 119.616 310.897 119.616H303.971C303.971 119.616 303.971 119.337 303.971 119.225C304.865 118.721 305.088 117.771 304.921 115.926C304.753 114.08 303.915 104.63 303.636 101.723C303.245 97.5291 301.178 92.7761 296.374 93.7267C290.118 94.9569 288.945 106.643 288.945 111.34V115.926C288.945 117.883 289.336 118.721 290.23 119.225C290.23 119.337 290.23 119.616 290.23 119.616H283.303C283.303 119.616 283.303 119.337 283.303 119.225C284.141 118.721 284.532 117.883 284.532 115.926V97.0258C284.532 95.0687 284.365 94.5096 283.303 94.3418C283.303 94.23 283.303 93.9504 283.303 93.9504L288.554 92.7202H288.945V106.588C289.671 100.325 291.57 92.7202 298.832 92.7202C303.412 92.7202 307.322 95.8516 307.993 102.562C308.551 107.985 309.11 113.857 309.333 115.926Z" fill="#2055CA"/>
</svg>
