<svg width="20" height="20" viewBox="0 0 20 20" fill="none" xmlns="http://www.w3.org/2000/svg">
<g clip-path="url(#clip0_17_12)">
<path d="M20 9.34567L12.6487 9.28536L19.033 5.66879L18.3332 4.43325L11.9365 8.05684L15.6572 1.73248L14.4332 1.01248L10.7056 7.34881L10.7654 0.0115664L9.34567 0L9.28536 7.35129L5.66879 0.967036L4.43325 1.6668L8.05684 8.06345L1.73248 4.34278L1.01248 5.56675L7.34881 9.29445L0.0115664 9.23414L0 10.6543L7.35129 10.7146L0.967036 14.3312L1.6668 15.5668L8.06345 11.9432L4.34278 18.2671L5.56675 18.9875L9.29445 12.6512L9.23414 19.9884L10.6543 20L10.7146 12.6487L14.3312 19.033L15.5668 18.3332L11.9432 11.9365L18.2671 15.6572L18.9875 14.4332L12.6512 10.7056L19.9884 10.7654L20 9.34567Z" fill="#3D3D3D"/>
</g>
<defs>
<clipPath id="clip0_17_12">
<rect width="20" height="20" fill="white"/>
</clipPath>
</defs>
</svg>
