<svg width="18" height="18" viewBox="0 0 18 18" fill="none" xmlns="http://www.w3.org/2000/svg">
<g clip-path="url(#clip0_139_2)">
<path d="M18 8.4111L11.3838 8.35682L17.1297 5.10191L16.4999 3.98992L10.7429 7.25116L14.0915 1.55924L12.9899 0.911228L9.635 6.61393L9.6889 0.0104098L8.4111 0L8.35682 6.61616L5.10191 0.870332L3.98992 1.50012L7.25116 7.25711L1.55924 3.9085L0.911228 5.01008L6.61393 8.365L0.0104098 8.31072L0 9.5889L6.61616 9.64318L0.870332 12.8981L1.50012 14.0101L7.25711 10.7488L3.9085 16.4404L5.01008 17.0888L8.365 11.3861L8.31072 17.9896L9.5889 18L9.64318 11.3838L12.8981 17.1297L14.0101 16.4999L10.7488 10.7429L16.4404 14.0915L17.0888 12.9899L11.3861 9.635L17.9896 9.6889L18 8.4111Z" fill="white"/>
</g>
<defs>
<clipPath id="clip0_139_2">
<rect width="18" height="18" fill="white"/>
</clipPath>
</defs>
</svg>
