<svg width="1495" height="320" viewBox="0 0 1495 320" fill="none" xmlns="http://www.w3.org/2000/svg">
<path d="M155.42 153C149.593 153 144.463 152.113 140.03 150.34C135.723 148.44 131.417 145.4 127.11 141.22L90.63 104.55L102.03 93.15L139.46 130.58C142.12 133.113 144.843 134.95 147.63 136.09C150.417 137.23 153.71 137.8 157.51 137.8H166.44V153H155.42ZM80.56 155.47C66.2467 155.47 53.7067 152.62 42.94 146.92C32.1733 141.22 23.8133 133.113 17.86 122.6C11.9067 112.087 8.93 99.61 8.93 85.17C8.93 77.8233 9.69 71.0467 11.21 64.84C12.8567 58.6333 15.1367 52.9333 18.05 47.74C20.9633 42.42 24.51 37.7333 28.69 33.68C32.87 29.6267 37.62 26.2067 42.94 23.42C48.26 20.6333 54.0233 18.5433 60.23 17.15C66.5633 15.63 73.34 14.87 80.56 14.87C94.7467 14.87 107.223 17.72 117.99 23.42C128.757 28.9933 137.117 37.1 143.07 47.74C149.023 58.2533 152 70.73 152 85.17C152 92.39 151.177 99.1667 149.53 105.5C148.01 111.707 145.793 117.47 142.88 122.79C139.967 127.983 136.42 132.607 132.24 136.66C128.06 140.713 123.31 144.133 117.99 146.92C112.67 149.707 106.843 151.797 100.51 153.19C94.3033 154.71 87.6533 155.47 80.56 155.47ZM80.56 140.27C86.0067 140.27 91.0733 139.7 95.76 138.56C100.447 137.42 104.753 135.773 108.68 133.62C112.607 131.34 116.027 128.617 118.94 125.45C121.98 122.283 124.513 118.673 126.54 114.62C128.693 110.44 130.277 105.88 131.29 100.94C132.303 96 132.81 90.7433 132.81 85.17C132.81 73.8967 130.72 64.1433 126.54 55.91C122.487 47.55 116.533 41.1533 108.68 36.72C100.827 32.2867 91.4533 30.07 80.56 30.07C74.9867 30.07 69.8567 30.64 65.17 31.78C60.4833 32.92 56.1767 34.63 52.25 36.91C48.3233 39.0633 44.84 41.7233 41.8 44.89C38.8867 48.0567 36.3533 51.73 34.2 55.91C32.1733 59.9633 30.6533 64.46 29.64 69.4C28.6267 74.2133 28.12 79.47 28.12 85.17C28.12 96.4433 30.1467 106.26 34.2 114.62C38.38 122.853 44.3967 129.187 52.25 133.62C60.1033 138.053 69.54 140.27 80.56 140.27ZM222.75 155.47C216.796 155.47 211.35 154.583 206.41 152.81C201.47 151.037 197.226 148.44 193.68 145.02C190.26 141.473 187.6 137.103 185.7 131.91C183.926 126.717 183.04 120.7 183.04 113.86V55.34H200.52V111.58C200.52 117.787 201.596 123.107 203.75 127.54C205.903 131.973 209.006 135.393 213.06 137.8C217.24 140.08 222.306 141.22 228.26 141.22C234.466 141.22 239.913 139.827 244.6 137.04C249.413 134.253 253.15 130.453 255.81 125.64C258.47 120.7 259.8 115.127 259.8 108.92V55.34H277.28V153H259.8V128.49L261.51 130.58C258.343 139.067 253.34 145.337 246.5 149.39C239.786 153.443 231.87 155.47 222.75 155.47ZM303.31 153V55.34H320.98V153H303.31ZM302.36 37.29V17.34H321.74V37.29H302.36ZM394.205 155.47C383.565 155.47 374.319 153.317 366.465 149.01C358.612 144.703 352.532 138.687 348.225 130.96C343.919 123.233 341.765 114.303 341.765 104.17C341.765 97.9633 342.525 92.2633 344.045 87.07C345.692 81.75 348.035 77 351.075 72.82C354.115 68.64 357.725 65.03 361.905 61.99C366.212 58.95 371.089 56.67 376.535 55.15C381.982 53.63 387.935 52.87 394.395 52.87C401.489 52.87 408.139 53.8833 414.345 55.91C420.552 57.81 425.935 60.9767 430.495 65.41C435.055 69.7167 438.539 75.4167 440.945 82.51C443.352 89.6033 444.302 98.28 443.795 108.54H353.545V95.81H426.125C425.745 90.87 424.732 86.6267 423.085 83.08C421.565 79.4067 419.412 76.3667 416.625 73.96C413.965 71.5533 410.735 69.78 406.935 68.64C403.262 67.3733 399.082 66.74 394.395 66.74C389.582 66.74 385.275 67.3733 381.475 68.64C377.675 69.78 374.382 71.49 371.595 73.77C368.935 76.05 366.719 78.71 364.945 81.75C363.172 84.79 361.842 88.21 360.955 92.01C360.195 95.81 359.815 99.8633 359.815 104.17C359.815 111.137 361.019 117.47 363.425 123.17C365.832 128.87 369.569 133.367 374.635 136.66C379.829 139.953 386.415 141.6 394.395 141.6C402.375 141.6 408.899 140.207 413.965 137.42C419.032 134.633 422.579 131.023 424.605 126.59H442.655C441.262 131.783 438.539 136.597 434.485 141.03C430.432 145.337 425.049 148.82 418.335 151.48C411.622 154.14 403.579 155.47 394.205 155.47ZM502.174 153C493.814 153 487.164 150.847 482.224 146.54C477.284 142.107 474.814 135.773 474.814 127.54V28.93H492.294V125.26C492.294 129.947 493.624 133.493 496.284 135.9C499.071 138.18 502.491 139.32 506.544 139.32H520.414V153H502.174ZM454.104 69.02V55.34H477.854V69.02H454.104ZM489.254 69.02V55.34H520.414V69.02H489.254ZM591.093 153V55.34H608.763V153H591.093ZM590.143 37.29V17.34H609.523V37.29H590.143ZM677.049 155.47C668.055 155.47 659.949 153.38 652.729 149.2C645.635 145.02 639.999 139.067 635.819 131.34C631.639 123.487 629.549 114.303 629.549 103.79C629.549 97.5833 630.309 91.82 631.829 86.5C633.349 81.18 635.565 76.43 638.479 72.25C641.392 68.07 644.812 64.5867 648.739 61.8C652.665 58.8867 657.035 56.67 661.849 55.15C666.662 53.63 671.729 52.87 677.049 52.87C683.002 52.87 688.575 53.6933 693.769 55.34C699.089 56.9867 703.839 59.5833 708.019 63.13C712.325 66.6767 715.745 71.2367 718.279 76.81L716.379 78.9V17.34H733.859V153H716.379V129.06L718.279 131.34C715.745 136.787 712.325 141.347 708.019 145.02C703.839 148.567 699.089 151.227 693.769 153C688.575 154.647 683.002 155.47 677.049 155.47ZM681.799 141.41C685.979 141.41 689.842 140.84 693.389 139.7C697.062 138.433 700.292 136.723 703.079 134.57C705.992 132.29 708.462 129.63 710.489 126.59C712.515 123.423 714.099 119.94 715.239 116.14C716.379 112.34 716.949 108.287 716.949 103.98C716.949 96.76 715.429 90.3633 712.389 84.79C709.475 79.2167 705.422 74.8467 700.229 71.68C695.035 68.5133 688.892 66.93 681.799 66.93C677.619 66.93 673.755 67.5633 670.209 68.83C666.662 69.97 663.495 71.6167 660.709 73.77C658.049 75.9233 655.705 78.52 653.679 81.56C651.779 84.6 650.322 88.02 649.309 91.82C648.422 95.4933 647.979 99.4833 647.979 103.79C647.979 111.01 649.309 117.47 651.969 123.17C654.629 128.87 658.492 133.367 663.559 136.66C668.625 139.827 674.705 141.41 681.799 141.41ZM806.491 155.47C795.851 155.47 786.604 153.317 778.751 149.01C770.897 144.703 764.817 138.687 760.511 130.96C756.204 123.233 754.051 114.303 754.051 104.17C754.051 97.9633 754.811 92.2633 756.331 87.07C757.977 81.75 760.321 77 763.361 72.82C766.401 68.64 770.011 65.03 774.191 61.99C778.497 58.95 783.374 56.67 788.821 55.15C794.267 53.63 800.221 52.87 806.681 52.87C813.774 52.87 820.424 53.8833 826.631 55.91C832.837 57.81 838.221 60.9767 842.781 65.41C847.341 69.7167 850.824 75.4167 853.231 82.51C855.637 89.6033 856.587 98.28 856.081 108.54H765.831V95.81H838.411C838.031 90.87 837.017 86.6267 835.371 83.08C833.851 79.4067 831.697 76.3667 828.911 73.96C826.251 71.5533 823.021 69.78 819.221 68.64C815.547 67.3733 811.367 66.74 806.681 66.74C801.867 66.74 797.561 67.3733 793.761 68.64C789.961 69.78 786.667 71.49 783.881 73.77C781.221 76.05 779.004 78.71 777.231 81.75C775.457 84.79 774.127 88.21 773.241 92.01C772.481 95.81 772.101 99.8633 772.101 104.17C772.101 111.137 773.304 117.47 775.711 123.17C778.117 128.87 781.854 133.367 786.921 136.66C792.114 139.953 798.701 141.6 806.681 141.6C814.661 141.6 821.184 140.207 826.251 137.42C831.317 134.633 834.864 131.023 836.891 126.59H854.941C853.547 131.783 850.824 136.597 846.771 141.03C842.717 145.337 837.334 148.82 830.621 151.48C823.907 154.14 815.864 155.47 806.491 155.47ZM907.421 155.47C896.274 155.47 887.534 152.873 881.201 147.68C874.867 142.487 871.701 135.457 871.701 126.59C871.701 121.143 872.967 116.457 875.501 112.53C878.161 108.603 882.024 105.373 887.091 102.84C892.157 100.18 898.364 98.4067 905.711 97.52L937.631 93.53C941.557 93.0233 944.217 91.9467 945.611 90.3C947.004 88.6533 947.701 86.5633 947.701 84.03V83.84C947.701 80.2933 946.687 77.2533 944.661 74.72C942.761 72.06 939.911 70.0333 936.111 68.64C932.311 67.2467 927.561 66.55 921.861 66.55C913.374 66.55 906.787 67.8167 902.101 70.35C897.414 72.8833 894.564 76.62 893.551 81.56H875.881C876.514 75.6067 878.794 70.54 882.721 66.36C886.647 62.0533 891.904 58.76 898.491 56.48C905.204 54.0733 912.994 52.87 921.861 52.87C931.487 52.87 939.531 54.2 945.991 56.86C952.451 59.3933 957.264 63.13 960.431 68.07C963.724 73.01 965.371 78.9633 965.371 85.93V153H948.651V126.59L950.361 128.11C947.827 134.697 944.407 140.017 940.101 144.07C935.794 147.997 930.854 150.91 925.281 152.81C919.834 154.583 913.881 155.47 907.421 155.47ZM912.171 141.6C917.364 141.6 922.114 140.777 926.421 139.13C930.727 137.483 934.464 135.203 937.631 132.29C940.924 129.377 943.394 125.893 945.041 121.84C946.814 117.787 947.701 113.417 947.701 108.73V97.33L951.691 101.32C949.411 102.587 947.067 103.537 944.661 104.17C942.254 104.803 939.151 105.373 935.351 105.88L907.991 109.87C902.291 110.757 897.857 112.467 894.691 115C891.524 117.533 889.941 121.017 889.941 125.45C889.941 130.517 891.904 134.507 895.831 137.42C899.757 140.207 905.204 141.6 912.171 141.6ZM1031.63 155.47C1023.9 155.47 1017.19 154.647 1011.49 153C1005.79 151.48 1000.98 149.327 997.049 146.54C993.122 143.753 990.082 140.523 987.929 136.85C985.902 133.05 984.699 128.933 984.319 124.5H1002.18C1002.94 127.92 1004.4 130.96 1006.55 133.62C1008.83 136.153 1012 138.18 1016.05 139.7C1020.23 141.093 1025.49 141.79 1031.82 141.79C1037.77 141.79 1042.71 141.157 1046.64 139.89C1050.57 138.623 1053.48 136.85 1055.38 134.57C1057.41 132.163 1058.42 129.44 1058.42 126.4C1058.42 122.98 1057.03 120.003 1054.24 117.47C1051.58 114.937 1047.34 113.227 1041.51 112.34L1017 108.16C1006.87 106.387 999.329 103.347 994.389 99.04C989.449 94.6067 986.979 88.7167 986.979 81.37C986.979 77.3167 987.929 73.58 989.829 70.16C991.729 66.6133 994.452 63.5733 997.999 61.04C1001.67 58.38 1006.17 56.3533 1011.49 54.96C1016.81 53.5667 1022.83 52.87 1029.54 52.87C1038.41 52.87 1046.01 54.01 1052.34 56.29C1058.8 58.4433 1063.87 61.61 1067.54 65.79C1071.21 69.97 1073.37 75.0367 1074 80.99H1056.14C1055.51 78.2033 1054.11 75.7333 1051.96 73.58C1049.93 71.4267 1047.02 69.7167 1043.22 68.45C1039.55 67.1833 1034.92 66.55 1029.35 66.55C1024.16 66.55 1019.66 67.1833 1015.86 68.45C1012.19 69.59 1009.34 71.2367 1007.31 73.39C1005.41 75.4167 1004.46 77.8867 1004.46 80.8C1004.46 84.6 1005.92 87.5133 1008.83 89.54C1011.87 91.44 1015.73 92.77 1020.42 93.53L1045.31 97.52C1051.01 98.5333 1056.2 100.117 1060.89 102.27C1065.58 104.297 1069.31 107.21 1072.1 111.01C1074.89 114.683 1076.28 119.433 1076.28 125.26C1076.28 130.073 1075.2 134.38 1073.05 138.18C1071.02 141.853 1068.05 145.02 1064.12 147.68C1060.19 150.213 1055.44 152.113 1049.87 153.38C1044.42 154.773 1038.34 155.47 1031.63 155.47ZM1094.79 182.07L1104.48 130.58H1124.24L1109.23 182.07H1094.79Z" fill="#007D52"/>
<path d="M514.392 196.638C524.905 196.638 532.707 198.575 537.798 202.448C542.999 206.321 545.6 211.467 545.6 217.886C545.6 223.53 543.94 228.621 540.62 233.158C537.3 237.585 533.039 241.403 527.838 244.612C522.637 247.711 517.214 250.145 511.57 251.916C521.751 253.576 528.834 256.896 532.818 261.876C536.802 266.745 538.794 272.445 538.794 278.974C538.794 284.95 537.355 290.151 534.478 294.578C531.601 298.894 527.783 302.491 523.024 305.368C518.265 308.245 512.953 310.403 507.088 311.842C501.223 313.281 495.302 314 489.326 314C485.121 314 480.749 313.945 476.212 313.834C471.675 313.613 466.529 313.502 460.774 313.502C458.229 313.502 455.683 313.557 453.138 313.668C450.593 313.668 448.213 313.723 446 313.834C443.897 313.834 442.071 313.889 440.522 314L441.186 310.68C444.949 310.459 447.881 310.016 449.984 309.352C452.087 308.688 453.747 307.36 454.964 305.368C456.181 303.376 457.288 300.388 458.284 296.404L480.196 214.068C480.971 210.748 481.413 208.092 481.524 206.1C481.635 203.997 480.86 202.448 479.2 201.452C477.651 200.345 474.718 199.792 470.402 199.792L471.232 196.472C472.781 196.583 474.607 196.693 476.71 196.804C478.813 196.804 481.081 196.859 483.516 196.97C486.061 196.97 488.551 196.97 490.986 196.97C494.859 196.97 498.677 196.915 502.44 196.804C506.313 196.693 510.297 196.638 514.392 196.638ZM482.852 254.406L483.516 251.584H496.464C503.215 251.584 509.025 250.09 513.894 247.102C518.763 244.003 522.526 239.964 525.182 234.984C527.838 230.004 529.166 224.692 529.166 219.048C529.166 212.519 527.727 207.705 524.85 204.606C522.083 201.397 517.546 199.792 511.238 199.792C506.369 199.792 502.938 200.567 500.946 202.116C498.954 203.555 497.349 206.709 496.132 211.578L473.722 296.404C472.837 299.724 472.339 302.435 472.228 304.538C472.228 306.53 472.947 307.969 474.386 308.854C475.825 309.739 478.425 310.182 482.188 310.182C491.927 310.182 499.673 308.854 505.428 306.198C511.293 303.542 515.554 299.724 518.21 294.744C520.866 289.653 522.194 283.567 522.194 276.484C522.194 271.836 521.364 267.907 519.704 264.698C518.044 261.378 515.443 258.833 511.902 257.062C508.471 255.291 503.989 254.406 498.456 254.406H482.852ZM601.349 229.672C597.807 229.672 594.377 231.111 591.057 233.988C587.847 236.755 584.859 240.573 582.093 245.442C579.437 250.201 577.057 255.568 574.955 261.544C572.963 267.52 571.413 273.717 570.307 280.136C569.2 286.555 568.647 292.697 568.647 298.562C568.647 303.542 569.421 307.194 570.971 309.518C572.631 311.842 575.01 313.004 578.109 313.004C581.65 313.004 585.025 311.621 588.235 308.854C591.555 305.977 594.598 302.159 597.365 297.4C600.131 292.531 602.511 287.108 604.503 281.132C606.495 275.156 608.044 269.014 609.151 262.706C610.257 256.287 610.811 250.09 610.811 244.114C610.811 239.023 610.036 235.371 608.487 233.158C606.937 230.834 604.558 229.672 601.349 229.672ZM554.371 290.262C554.371 285.393 555.035 280.081 556.363 274.326C557.691 268.571 559.683 262.872 562.339 257.228C564.995 251.584 568.204 246.438 571.967 241.79C575.84 237.142 580.322 233.435 585.413 230.668C590.503 227.791 596.147 226.352 602.345 226.352C609.206 226.352 614.684 228.51 618.779 232.826C622.984 237.031 625.087 243.561 625.087 252.414C625.087 257.283 624.423 262.595 623.095 268.35C621.767 274.105 619.775 279.804 617.119 285.448C614.463 291.092 611.198 296.238 607.325 300.886C603.562 305.534 599.135 309.297 594.045 312.174C588.954 314.941 583.31 316.324 577.113 316.324C570.251 316.324 564.718 314.166 560.513 309.85C556.418 305.534 554.371 299.005 554.371 290.262ZM648.871 299.89C647.986 303.099 647.709 305.645 648.041 307.526C648.373 309.297 649.591 310.182 651.693 310.182C653.907 310.182 655.954 308.965 657.835 306.53C659.827 303.985 661.93 299.558 664.143 293.25L666.301 287.108H669.455L665.305 299.226C663.867 303.431 662.096 306.807 659.993 309.352C658.001 311.787 655.788 313.557 653.353 314.664C650.919 315.771 648.263 316.324 645.385 316.324C641.733 316.324 639.022 315.605 637.251 314.166C635.591 312.838 634.54 311.012 634.097 308.688C633.765 306.364 633.821 303.874 634.263 301.218C634.817 298.451 635.481 295.74 636.255 293.084L663.313 203.278C664.42 199.515 664.309 196.749 662.981 194.978C661.653 193.207 658.278 192.322 652.855 192.322L654.017 188.836C660.104 188.725 665.471 188.117 670.119 187.01C674.767 185.793 679.249 184.133 683.565 182.03L648.871 299.89ZM739.233 299.89C738.458 302.435 738.126 304.815 738.237 307.028C738.458 309.131 739.786 310.182 742.221 310.182C744.434 310.182 746.481 308.965 748.363 306.53C750.244 303.985 752.236 299.558 754.339 293.25L756.331 287.108H759.485L755.667 299.226C754.339 303.653 752.568 307.139 750.355 309.684C748.141 312.119 745.817 313.834 743.383 314.83C740.948 315.826 738.624 316.324 736.411 316.324C729.771 316.324 726.285 313.17 725.953 306.862C725.842 305.091 725.953 303.044 726.285 300.72C726.727 298.396 727.336 295.851 728.111 293.084L752.015 203.278C753.011 199.515 752.845 196.749 751.517 194.978C750.189 193.207 746.813 192.322 741.391 192.322L742.387 188.836C748.473 188.725 753.841 188.117 758.489 187.01C763.137 185.793 767.563 184.133 771.769 182.03L739.233 299.89ZM702.049 311.012C704.815 311.012 707.914 309.407 711.345 306.198C714.886 302.878 718.427 298.451 721.969 292.918C725.621 287.274 728.941 280.911 731.929 273.828C735.027 266.635 737.462 259.22 739.233 251.584L736.743 269.512C732.427 280.911 728.111 290.041 723.795 296.902C719.589 303.763 715.273 308.743 710.847 311.842C706.531 314.83 701.993 316.324 697.235 316.324C693.804 316.324 690.761 315.549 688.105 314C685.559 312.34 683.567 309.905 682.129 306.696C680.69 303.487 679.971 299.392 679.971 294.412C679.971 289.1 680.801 283.401 682.461 277.314C684.231 271.117 686.721 265.03 689.931 259.054C693.14 253.078 696.958 247.655 701.385 242.786C705.922 237.806 710.902 233.822 716.325 230.834C721.747 227.846 727.502 226.352 733.589 226.352C736.134 226.352 738.513 227.348 740.727 229.34C742.94 231.221 744.157 234.099 744.379 237.972L743.051 241.292C742.608 237.308 741.501 234.486 739.731 232.826C737.96 231.055 735.968 230.17 733.755 230.17C729.549 230.17 725.455 231.609 721.471 234.486C717.597 237.363 714.056 241.181 710.847 245.94C707.637 250.699 704.815 256.011 702.381 261.876C699.946 267.631 698.065 273.551 696.737 279.638C695.409 285.614 694.745 291.258 694.745 296.57C694.745 301.439 695.353 305.091 696.571 307.526C697.788 309.85 699.614 311.012 702.049 311.012ZM863.554 229.672C859.348 229.672 855.143 231.387 850.938 234.818C846.843 238.249 843.08 242.952 839.65 248.928C836.219 254.904 833.452 261.71 831.35 269.346C829.358 276.982 828.362 285.005 828.362 293.416C828.362 299.06 829.413 303.155 831.516 305.7C833.729 308.135 836.551 309.352 839.982 309.352C843.966 309.352 848.06 308.135 852.266 305.7C856.471 303.265 860.676 298.949 864.882 292.752L868.202 294.08C866.099 297.732 863.332 301.273 859.902 304.704C856.471 308.135 852.598 310.957 848.282 313.17C844.076 315.273 839.594 316.324 834.836 316.324C828.196 316.324 822.884 314.277 818.9 310.182C814.916 306.087 812.924 300.001 812.924 291.922C812.924 286.831 813.643 281.353 815.082 275.488C816.631 269.512 818.789 263.647 821.556 257.892C824.433 252.027 827.919 246.77 832.014 242.122C836.108 237.363 840.756 233.545 845.958 230.668C851.159 227.791 856.858 226.352 863.056 226.352C867.925 226.352 872.13 227.625 875.672 230.17C879.213 232.605 880.984 236.035 880.984 240.462C880.984 242.565 880.486 244.667 879.49 246.77C878.604 248.762 877.276 250.422 875.506 251.75C873.735 253.078 871.632 253.742 869.198 253.742C866.874 253.742 865.158 253.133 864.052 251.916C862.945 250.588 862.392 249.039 862.392 247.268C862.392 244.059 863.664 241.347 866.21 239.134C868.755 236.81 871.632 235.371 874.842 234.818C873.735 233.269 872.296 232.051 870.526 231.166C868.755 230.17 866.431 229.672 863.554 229.672ZM901.674 314H887.232L907.152 242.786C908.259 239.023 908.591 236.367 908.148 234.818C907.816 233.269 906.709 232.494 904.828 232.494C902.393 232.494 900.18 233.767 898.188 236.312C896.196 238.857 894.093 243.229 891.88 249.426L889.722 255.568H886.568L890.718 243.45C892.378 238.802 894.315 235.261 896.528 232.826C898.852 230.391 901.231 228.731 903.666 227.846C906.211 226.85 908.591 226.352 910.804 226.352C914.124 226.352 916.448 227.071 917.776 228.51C919.215 229.949 919.989 231.83 920.1 234.154C920.321 236.478 920.155 239.023 919.602 241.79C919.159 244.446 918.606 247.047 917.942 249.592L901.674 314ZM944.336 230.502C941.791 230.502 939.135 231.719 936.368 234.154C933.712 236.478 930.945 239.909 928.068 244.446C925.301 248.873 922.479 254.24 919.602 260.548C916.835 266.745 914.069 273.662 911.302 281.298C908.646 288.934 906.045 297.179 903.5 306.032L907.65 284.784C911.302 273.939 914.677 264.809 917.776 257.394C920.985 249.979 924.139 244.003 927.238 239.466C930.337 234.818 933.491 231.498 936.7 229.506C940.02 227.403 943.506 226.352 947.158 226.352C950.257 226.352 952.636 227.237 954.296 229.008C956.067 230.779 956.952 233.047 956.952 235.814C956.952 238.027 956.399 240.075 955.292 241.956C954.185 243.727 952.747 245.165 950.976 246.272C949.316 247.268 947.435 247.766 945.332 247.766C943.451 247.766 941.846 247.268 940.518 246.272C939.301 245.165 938.692 243.671 938.692 241.79C938.692 240.019 939.024 238.47 939.688 237.142C940.352 235.703 941.237 234.486 942.344 233.49C943.451 232.494 944.723 231.719 946.162 231.166C945.941 230.945 945.664 230.779 945.332 230.668C945.111 230.557 944.779 230.502 944.336 230.502ZM962.969 276.318C969.167 274.215 974.755 272.168 979.735 270.176C984.826 268.073 988.865 265.86 991.853 263.536C995.837 260.327 998.991 256.453 1001.32 251.916C1003.64 247.379 1004.8 242.399 1004.8 236.976C1004.8 233.767 1004.58 231.719 1004.14 230.834C1003.69 229.949 1003.03 229.506 1002.15 229.506C999.379 229.506 996.391 230.723 993.181 233.158C989.972 235.593 986.818 238.968 983.719 243.284C980.621 247.489 977.743 252.303 975.087 257.726C972.542 263.149 970.495 268.959 968.945 275.156C967.396 281.243 966.621 287.329 966.621 293.416C966.621 299.06 967.673 303.155 969.775 305.7C971.878 308.135 974.645 309.352 978.075 309.352C982.059 309.352 986.265 308.135 990.691 305.7C995.118 303.265 999.434 298.949 1003.64 292.752L1006.3 294.08C1004.19 297.732 1001.43 301.273 997.995 304.704C994.565 308.135 990.691 310.957 986.375 313.17C982.17 315.273 977.688 316.324 972.929 316.324C968.503 316.324 964.629 315.439 961.309 313.668C957.989 311.897 955.444 309.297 953.673 305.866C951.903 302.325 951.017 298.009 951.017 292.918C951.017 288.159 951.903 282.847 953.673 276.982C955.444 271.006 957.934 265.085 961.143 259.22C964.463 253.244 968.392 247.766 972.929 242.786C977.467 237.806 982.502 233.822 988.035 230.834C993.569 227.846 999.489 226.352 1005.8 226.352C1009.23 226.352 1012.11 227.293 1014.43 229.174C1016.86 230.945 1018.08 233.656 1018.08 237.308C1018.08 241.735 1016.75 245.885 1014.1 249.758C1011.55 253.521 1008.12 257.007 1003.81 260.216C999.6 263.315 995.007 266.081 990.027 268.516C985.047 270.951 980.178 273.053 975.419 274.824C970.661 276.595 966.455 278.033 962.803 279.14L962.969 276.318ZM1042.1 311.012C1044.76 311.012 1047.8 309.352 1051.23 306.032C1054.66 302.601 1058.15 298.009 1061.69 292.254C1065.23 286.499 1068.5 279.97 1071.49 272.666C1074.47 265.362 1076.85 257.781 1078.62 249.924L1075.8 267.852C1071.6 279.583 1067.39 289.045 1063.19 296.238C1058.98 303.321 1054.72 308.467 1050.4 311.676C1046.09 314.775 1041.72 316.324 1037.29 316.324C1032.09 316.324 1028.16 314.443 1025.5 310.68C1022.96 306.917 1021.69 302.103 1021.69 296.238C1021.69 290.926 1022.57 285.171 1024.34 278.974C1026.11 272.666 1028.55 266.413 1031.65 260.216C1034.85 254.019 1038.51 248.375 1042.6 243.284C1046.7 238.193 1051.12 234.099 1055.88 231C1060.75 227.901 1065.68 226.352 1070.66 226.352C1074.53 226.352 1077.46 228.289 1079.45 232.162C1081.56 235.925 1082 241.237 1080.78 248.098L1078.96 249.094C1079.73 243.229 1079.34 238.525 1077.79 234.984C1076.24 231.332 1073.7 229.506 1070.16 229.506C1067.28 229.506 1064.24 230.945 1061.03 233.822C1057.93 236.589 1054.89 240.407 1051.9 245.276C1049.02 250.035 1046.36 255.402 1043.93 261.378C1041.61 267.354 1039.72 273.551 1038.29 279.97C1036.96 286.278 1036.29 292.365 1036.29 298.23C1036.29 302.989 1036.79 306.309 1037.79 308.19C1038.89 310.071 1040.33 311.012 1042.1 311.012ZM1083.94 228.676C1086.59 228.565 1089.25 228.344 1091.9 228.012C1094.56 227.68 1096.99 227.127 1099.21 226.352L1078.46 299.724C1078.24 300.72 1077.9 302.048 1077.46 303.708C1077.13 305.257 1077.13 306.696 1077.46 308.024C1077.9 309.352 1079.07 310.016 1080.95 310.016C1083.16 310.016 1085.32 308.799 1087.42 306.364C1089.52 303.929 1091.63 299.503 1093.73 293.084L1095.72 286.942H1098.88L1094.73 299.06C1093.18 303.487 1091.29 306.973 1089.08 309.518C1086.98 311.953 1084.77 313.668 1082.44 314.664C1080.12 315.771 1077.85 316.324 1075.64 316.324C1071.32 316.324 1068.28 314.885 1066.51 312.008C1065.07 309.463 1064.68 306.53 1065.34 303.21C1066.01 299.779 1066.78 296.349 1067.67 292.918L1083.94 228.676ZM1169.33 228.676L1168.83 231.996H1117.21L1118.04 228.676H1169.33ZM1127.17 299.89C1126.17 303.542 1126.39 306.198 1127.83 307.858C1129.38 309.407 1131.37 310.182 1133.81 310.182C1136.24 310.182 1138.68 309.131 1141.11 307.028C1143.66 304.925 1146.15 300.443 1148.58 293.582L1150.91 287.108H1154.06L1150.57 297.566C1148.14 304.759 1144.99 309.684 1141.11 312.34C1137.35 314.996 1132.92 316.324 1127.83 316.324C1123.29 316.324 1119.81 315.383 1117.37 313.502C1115.05 311.51 1113.67 308.743 1113.22 305.202C1112.78 301.661 1113.22 297.621 1114.55 293.084L1140.28 203.444C1142.94 203.333 1145.54 203.112 1148.08 202.78C1150.74 202.448 1153.12 201.895 1155.22 201.12L1127.17 299.89ZM1194.22 198.464C1194.77 195.587 1196.21 193.097 1198.54 190.994C1200.97 188.891 1203.57 187.84 1206.34 187.84C1209.22 187.84 1211.43 188.891 1212.98 190.994C1214.64 193.097 1215.19 195.587 1214.64 198.464C1214.09 201.341 1212.59 203.831 1210.16 205.934C1207.83 208.037 1205.23 209.088 1202.36 209.088C1199.59 209.088 1197.38 208.037 1195.72 205.934C1194.17 203.831 1193.67 201.341 1194.22 198.464ZM1189.08 242.786C1191.4 235.925 1190.62 232.494 1186.75 232.494C1184.21 232.494 1181.94 233.877 1179.95 236.644C1177.95 239.411 1175.85 243.671 1173.64 249.426L1171.31 255.568H1168.16L1172.48 243.45C1174.14 238.802 1176.13 235.261 1178.45 232.826C1180.78 230.391 1183.21 228.731 1185.76 227.846C1188.41 226.85 1190.85 226.352 1193.06 226.352C1196.6 226.352 1199.2 227.071 1200.86 228.51C1202.52 229.949 1203.52 231.83 1203.85 234.154C1204.18 236.478 1204.07 239.023 1203.52 241.79C1202.96 244.446 1202.24 247.047 1201.36 249.592L1183.6 299.89C1182.49 303.099 1182.1 305.645 1182.44 307.526C1182.88 309.297 1184.15 310.182 1186.25 310.182C1188.47 310.182 1190.57 308.965 1192.56 306.53C1194.55 304.095 1196.77 299.669 1199.2 293.25L1201.53 287.108H1204.68L1200.36 299.226C1198.81 303.542 1196.93 306.973 1194.72 309.518C1192.51 311.953 1190.13 313.668 1187.58 314.664C1185.04 315.771 1182.49 316.324 1179.95 316.324C1175.19 316.324 1171.98 315.217 1170.32 313.004C1168.66 310.791 1168.05 307.913 1168.49 304.372C1168.93 300.831 1169.87 297.068 1171.31 293.084L1189.08 242.786ZM1263.4 229.672C1259.86 229.672 1256.43 231.111 1253.11 233.988C1249.9 236.755 1246.91 240.573 1244.15 245.442C1241.49 250.201 1239.11 255.568 1237.01 261.544C1235.02 267.52 1233.47 273.717 1232.36 280.136C1231.25 286.555 1230.7 292.697 1230.7 298.562C1230.7 303.542 1231.48 307.194 1233.03 309.518C1234.69 311.842 1237.06 313.004 1240.16 313.004C1243.7 313.004 1247.08 311.621 1250.29 308.854C1253.61 305.977 1256.65 302.159 1259.42 297.4C1262.19 292.531 1264.57 287.108 1266.56 281.132C1268.55 275.156 1270.1 269.014 1271.21 262.706C1272.31 256.287 1272.87 250.09 1272.87 244.114C1272.87 239.023 1272.09 235.371 1270.54 233.158C1268.99 230.834 1266.61 229.672 1263.4 229.672ZM1216.43 290.262C1216.43 285.393 1217.09 280.081 1218.42 274.326C1219.75 268.571 1221.74 262.872 1224.39 257.228C1227.05 251.584 1230.26 246.438 1234.02 241.79C1237.89 237.142 1242.38 233.435 1247.47 230.668C1252.56 227.791 1258.2 226.352 1264.4 226.352C1271.26 226.352 1276.74 228.51 1280.83 232.826C1285.04 237.031 1287.14 243.561 1287.14 252.414C1287.14 257.283 1286.48 262.595 1285.15 268.35C1283.82 274.105 1281.83 279.804 1279.17 285.448C1276.52 291.092 1273.25 296.238 1269.38 300.886C1265.62 305.534 1261.19 309.297 1256.1 312.174C1251.01 314.941 1245.36 316.324 1239.17 316.324C1232.31 316.324 1226.77 314.166 1222.57 309.85C1218.47 305.534 1216.43 299.005 1216.43 290.262ZM1314.25 314H1299.8L1319.72 242.786C1320.17 241.458 1320.5 240.019 1320.72 238.47C1321.05 236.81 1321 235.427 1320.55 234.32C1320.11 233.103 1319 232.494 1317.23 232.494C1314.8 232.494 1312.64 233.711 1310.76 236.146C1308.88 238.47 1306.78 242.897 1304.45 249.426L1302.29 255.568H1299.14L1303.29 243.45C1305.72 236.478 1308.71 231.885 1312.25 229.672C1315.91 227.459 1319.5 226.352 1323.04 226.352C1326.36 226.352 1328.74 227.071 1330.18 228.51C1331.73 229.949 1332.56 231.83 1332.67 234.154C1332.89 236.367 1332.73 238.857 1332.17 241.624C1331.73 244.28 1331.18 246.936 1330.51 249.592L1314.25 314ZM1321.88 279.472C1325.76 269.512 1329.52 261.157 1333.17 254.406C1336.82 247.655 1340.42 242.233 1343.96 238.138C1347.5 233.933 1351.1 230.945 1354.75 229.174C1358.51 227.293 1362.39 226.352 1366.37 226.352C1371.57 226.352 1375.11 227.625 1376.99 230.17C1378.99 232.605 1379.87 235.759 1379.65 239.632C1379.43 243.395 1378.65 247.323 1377.33 251.418L1361.22 299.89C1360.23 302.878 1359.79 305.368 1359.9 307.36C1360.12 309.241 1361.45 310.182 1363.88 310.182C1365.98 310.182 1368.03 309.02 1370.02 306.696C1372.12 304.372 1374.34 299.89 1376.66 293.25L1378.82 287.108H1381.97L1377.82 299.226C1376.27 303.874 1374.34 307.415 1372.01 309.85C1369.8 312.285 1367.42 313.945 1364.88 314.83C1362.44 315.826 1360.06 316.324 1357.74 316.324C1355.08 316.324 1352.87 315.881 1351.1 314.996C1349.44 314.111 1348.17 312.949 1347.28 311.51C1346.06 309.518 1345.68 306.917 1346.12 303.708C1346.56 300.499 1347.45 296.957 1348.77 293.084L1364.54 245.608C1365.1 244.059 1365.54 242.233 1365.87 240.13C1366.31 237.917 1366.26 235.98 1365.71 234.32C1365.15 232.549 1363.55 231.664 1360.89 231.664C1358.24 231.664 1355.41 232.826 1352.43 235.15C1349.44 237.474 1346.34 240.794 1343.13 245.11C1339.92 249.315 1336.77 254.406 1333.67 260.382C1330.57 266.247 1327.58 272.777 1324.7 279.97C1321.94 287.053 1319.39 294.633 1317.07 302.712L1321.88 279.472ZM1400.08 311.51C1400.97 311.953 1401.91 312.34 1402.9 312.672C1404.01 312.893 1405.61 313.004 1407.72 313.004C1412.59 313.004 1416.57 311.565 1419.67 308.688C1422.88 305.7 1424.48 301.439 1424.48 295.906C1424.48 292.475 1423.82 289.1 1422.49 285.78C1421.27 282.349 1419.06 278.421 1415.85 273.994C1413.31 270.453 1410.87 266.856 1408.55 263.204C1406.22 259.441 1405.06 255.015 1405.06 249.924C1405.06 245.165 1406.22 241.071 1408.55 237.64C1410.87 234.099 1413.97 231.332 1417.84 229.34C1421.83 227.348 1426.14 226.352 1430.79 226.352C1434 226.352 1437.15 226.739 1440.25 227.514C1443.35 228.289 1445.9 229.727 1447.89 231.83C1449.99 233.822 1451.04 236.81 1451.04 240.794C1451.04 241.79 1450.77 243.007 1450.21 244.446C1449.77 245.774 1449 246.936 1447.89 247.932C1446.78 248.928 1445.29 249.426 1443.41 249.426C1441.64 249.426 1440.09 248.817 1438.76 247.6C1437.43 246.272 1436.77 244.557 1436.77 242.454C1436.77 240.462 1437.15 238.581 1437.93 236.81C1438.81 234.929 1439.98 233.103 1441.42 231.332C1439.31 230.004 1436.55 229.34 1433.12 229.34C1429.02 229.34 1425.59 230.723 1422.82 233.49C1420.06 236.257 1418.67 240.13 1418.67 245.11C1418.67 247.655 1419.06 249.924 1419.84 251.916C1420.61 253.797 1421.72 255.789 1423.16 257.892C1424.7 259.995 1426.53 262.651 1428.63 265.86C1431.4 270.065 1433.72 274.105 1435.61 277.978C1437.49 281.851 1438.43 285.946 1438.43 290.262C1438.43 295.353 1437.1 299.89 1434.44 303.874C1431.9 307.747 1428.47 310.791 1424.15 313.004C1419.84 315.217 1415.08 316.324 1409.88 316.324C1406.11 316.324 1402.52 315.771 1399.09 314.664C1395.65 313.557 1392.83 311.842 1390.62 309.518C1388.52 307.083 1387.47 303.874 1387.47 299.89C1387.47 298.341 1387.96 296.736 1388.96 295.076C1389.84 293.305 1391.5 292.42 1393.94 292.42C1396.6 292.42 1398.48 293.527 1399.58 295.74C1400.69 297.843 1401.24 300.222 1401.24 302.878C1401.24 304.649 1401.08 306.253 1400.75 307.692C1400.52 309.02 1400.3 310.293 1400.08 311.51ZM1453.34 307.858C1453.34 304.538 1454.62 301.605 1457.16 299.06C1459.71 296.404 1462.53 295.076 1465.63 295.076C1468.17 295.076 1470.22 295.906 1471.77 297.566C1473.32 299.226 1474.09 301.273 1474.09 303.708C1474.09 305.921 1473.49 308.024 1472.27 310.016C1471.16 311.897 1469.67 313.391 1467.79 314.498C1465.9 315.715 1463.86 316.324 1461.64 316.324C1459.21 316.324 1457.22 315.549 1455.67 314C1454.12 312.34 1453.34 310.293 1453.34 307.858Z" fill="#007D52"/>
</svg>
